<svg width="83" height="82" viewBox="0 0 83 82" fill="none" xmlns="http://www.w3.org/2000/svg">
<g clip-path="url(#clip0_452_60)">
<path d="M9.9873 60.5558C9.9873 63.5002 12.3762 65.8891 15.3206 65.8891H68.654C71.5984 65.8891 73.9873 63.5002 73.9873 60.5558V60.4336H67.1317L63.5873 56.5336L60.0429 60.4336H37.4095V42.2336H30.0984L39.1762 21.7113H47.9095L51.0317 28.7336V21.7113H61.8317L63.7095 27.0002L65.5984 21.7113H73.9873V21.4447C73.9873 18.5002 71.5984 16.1113 68.654 16.1113H15.3206C12.3762 16.1113 9.9873 18.5002 9.9873 21.4447V60.5558ZM58.9206 58.1447L63.6095 53.0002L68.2762 58.1447H73.9873L66.4318 50.1336L73.9873 42.1224H68.3651L63.6984 47.3113L59.0873 42.1224H53.3762L60.8762 50.178L53.3873 58.1336V54.4558H44.1651V51.9891H53.154V48.4002H44.1651V45.9113H53.3873V42.2336H39.8318V58.1447H58.9206ZM69.6206 50.1447L73.9873 54.8002V45.5447L69.6206 50.1447ZM65.5873 39.9224L69.6873 28.7447V39.9224H73.9873V24.0002H67.2984L63.7206 33.9224L60.1762 24.0002H53.3762V39.9002L46.354 24.0002H40.6651L33.7317 39.9224H38.5095L39.8318 36.7336H47.154L48.4873 39.9224H57.6762V28.778L61.7651 39.9224H65.5873ZM41.3206 33.1558L43.4873 27.9447L45.6429 33.1558H41.3206Z" fill="#6460A7"/>
</g>
<defs>
<clipPath id="clip0_452_60">
<rect width="64" height="56.8889" fill="white" transform="translate(9.9873 12.5557)"/>
</clipPath>
</defs>
</svg>
