<svg width="50" height="50" viewBox="0 0 50 50" fill="none" xmlns="http://www.w3.org/2000/svg">
<path d="M29.8565 32.9637L32.6273 30.1926C33.0538 29.7612 33.5615 29.4182 34.1211 29.1845C34.6809 28.9507 35.2813 28.8305 35.8877 28.8305C36.4944 28.8305 37.0948 28.9507 37.6546 29.1845C38.2142 29.4182 38.7219 29.7612 39.1481 30.1926L42.3981 33.4428C42.8296 33.8691 43.1723 34.3764 43.4061 34.9362C43.6398 35.4957 43.7602 36.0966 43.7602 36.703C43.7602 37.3097 43.6398 37.9103 43.4061 38.4701C43.1723 39.0297 42.8296 39.537 42.3981 39.9632L40.919 41.4632C39.8998 42.4924 38.5817 43.1737 37.1525 43.4093C35.7234 43.6449 34.2563 43.4235 32.9606 42.776C21.8113 37.0366 12.73 27.9624 6.98154 16.8178C6.33348 15.5208 6.11344 14.0516 6.35302 12.6216C6.5926 11.1916 7.27948 9.8743 8.31492 8.85932L9.794 7.35938C10.6605 6.49809 11.8327 6.01457 13.0544 6.01457C14.2762 6.01457 15.4483 6.49809 16.3148 7.35938L19.5857 10.6303C20.447 11.4969 20.9304 12.6689 20.9304 13.8907C20.9304 15.1124 20.447 16.2844 19.5857 17.1509L16.8148 19.9219C18.6469 22.4001 20.6593 24.7395 22.8356 26.9216C24.9994 29.0891 27.3256 31.0882 29.794 32.9012L29.8565 32.9637Z" stroke="#6460A7" stroke-width="4" stroke-linecap="round" stroke-linejoin="round"/>
<path d="M37.9395 18.1718C37.6205 16.6232 36.8607 15.1999 35.752 14.0727C34.6434 12.9455 33.2326 12.1622 31.6895 11.8175" stroke="#6460A7" stroke-width="4" stroke-linecap="round" stroke-linejoin="round"/>
<path d="M45.8333 15.4008C45.059 12.67 43.6 10.1826 41.5948 8.17369C39.5896 6.16478 37.1044 4.7009 34.375 3.92157" stroke="#6460A7" stroke-width="4" stroke-linecap="round" stroke-linejoin="round"/>
</svg>
