<svg width="63" height="62" viewBox="0 0 63 62" fill="none" xmlns="http://www.w3.org/2000/svg">
<path d="M5.65551 19.1298C5.78597 16.2789 6.23234 14.4403 6.83601 12.8796L6.84413 12.8581C7.44233 11.2699 8.37945 9.83121 9.59025 8.64206L9.60724 8.62538L9.62392 8.60839C10.814 7.39603 12.2533 6.45983 13.84 5.86322L13.8674 5.85276C15.4245 5.24719 17.2596 4.80246 20.1128 4.67203M5.65551 19.1298C5.51835 22.1758 5.4834 23.12 5.4834 31.0176C5.4834 38.9168 5.51643 39.8588 5.65543 42.9055M5.65551 19.1298V19.8981M20.1128 4.67203C23.1595 4.53303 24.1033 4.5 32.0007 4.5C39.8983 4.5 40.8417 4.53492 43.8875 4.67205M20.1128 4.67203H20.8831M5.65543 42.9055C5.78586 45.7588 6.23059 47.5937 6.83615 49.1508L6.84661 49.1784M5.65543 42.9055L5.70215 43.1515M5.65543 42.9055V42.1353M5.65551 19.8981C5.66616 19.654 5.67766 19.3996 5.68996 19.1289C5.83292 16.0098 6.36317 14.1873 6.86859 12.8946C7.52272 11.2065 8.35134 9.93267 9.61725 8.6615C10.8205 7.42716 12.2833 6.47598 13.8995 5.87683C15.1865 5.37768 17.0041 4.84902 20.1115 4.70659C20.383 4.69426 20.6382 4.68274 20.8831 4.67203M5.65551 19.8981C5.54262 22.4794 5.51835 23.9033 5.51835 31.0176C5.51835 38.1293 5.54262 39.5553 5.65543 42.1353M5.65551 19.8981L5.65543 42.1353M6.84661 49.1784C7.44322 50.7651 8.37942 52.2042 9.59178 53.3945L9.60874 53.4112L9.6254 53.4279C10.8146 54.6388 12.2534 55.5761 13.8415 56.1742L13.8652 56.1831C15.4238 56.7876 17.2597 57.2325 20.1128 57.363M6.84661 49.1784L6.81085 48.9899M6.81085 48.9899L5.70215 43.1515M6.81085 48.9899C6.33996 47.746 5.8551 46.0102 5.70215 43.1515M6.81085 48.9899C6.82737 49.0337 6.84385 49.0766 6.86034 49.119C7.45748 50.7288 8.40364 52.1866 9.63084 53.3872C10.8311 54.6143 12.2882 55.5602 13.8975 56.1574C15.189 56.6604 17.0088 57.1862 20.1123 57.3284C23.2443 57.471 24.2119 57.5 32.0007 57.5C39.7898 57.5 40.7583 57.471 43.8903 57.3284C46.9975 57.1859 48.8151 56.6573 50.1022 56.1583C51.7122 55.5613 53.1703 54.6148 54.3709 53.3872C55.5977 52.1869 56.5436 50.7299 57.1408 49.1207C57.6438 47.8292 58.1696 46.0096 58.3116 42.906C58.4541 39.774 58.4834 38.8044 58.4834 31.0176C58.4834 23.2305 58.4541 22.2601 58.3116 19.1281C58.1685 16.0045 57.6351 14.1842 57.1336 12.8961C56.478 11.2037 55.6468 9.92377 54.3689 8.64591C53.0936 7.37313 51.8171 6.54131 50.1234 5.88509C48.8307 5.37972 47.0092 4.84955 43.8903 4.70659C43.6189 4.69426 43.3639 4.68277 43.1193 4.67205M5.70215 43.1515C5.69782 43.0709 5.69378 42.9894 5.68999 42.9069C5.67766 42.6355 5.66614 42.3802 5.65543 42.1353M43.1193 4.67205H43.8875M43.1193 4.67205L20.8831 4.67203M43.1193 4.67205C40.539 4.55925 39.1133 4.53495 32.0007 4.53495C24.8889 4.53495 23.463 4.55922 20.8831 4.67203M43.8875 4.67205C46.7389 4.80249 48.5777 5.24881 50.1387 5.85253L50.1602 5.86073C51.7482 6.45894 53.187 7.39606 54.3762 8.60686L54.3926 8.62368L54.4097 8.64019C55.6206 9.82943 56.5575 11.2685 57.1553 12.8572L57.1654 12.884C57.771 14.4412 58.2159 16.2762 58.3462 19.1294M58.3462 42.9055C58.2159 45.7585 57.771 47.5946 57.1665 49.1531L57.1576 49.1768C56.5592 50.7651 55.6222 52.2036 54.4113 53.3928L54.3943 53.4095L54.3779 53.4265C53.1876 54.6388 51.7485 55.575 50.1616 56.1717L50.1342 56.1823C48.5772 56.7878 46.742 57.2325 43.8889 57.363M27.2846 42.4036C28.7797 43.0229 30.3823 43.3418 32.0007 43.3418C35.2694 43.3418 38.4042 42.0432 40.7156 39.7322C43.0267 37.4208 44.3252 34.286 44.3252 31.0176C44.3252 27.7489 43.0267 24.6141 40.7156 22.3028C38.4042 19.9916 35.2694 18.6931 32.0007 18.6931C30.3823 18.6931 28.7797 19.0119 27.2846 19.6313C25.7891 20.2506 24.4306 21.1584 23.2862 22.3028C22.1418 23.4473 21.234 24.8059 20.6147 26.3012C19.9953 27.7963 19.6765 29.3991 19.6765 31.0176C19.6765 32.636 19.9953 34.2386 20.6147 35.7337C21.234 37.2292 22.1418 38.5876 23.2862 39.7322C24.4306 40.8764 25.7891 41.7844 27.2846 42.4036ZM23.2588 22.2754C25.5774 19.9568 28.722 18.6543 32.0007 18.6543C35.2798 18.6543 38.4243 19.9568 40.7429 22.2754C43.0615 24.5939 44.3639 27.7385 44.3639 31.0176C44.3639 34.2963 43.0615 37.4409 40.7429 39.7595C38.4243 42.0781 35.2798 43.3805 32.0007 43.3805C28.722 43.3805 25.5774 42.0781 23.2588 39.7595C20.9402 37.4409 19.6377 34.2963 19.6377 31.0176C19.6377 27.7385 20.9402 24.5939 23.2588 22.2754ZM51.3256 15.7759C51.3256 16.7144 50.9527 17.6144 50.2893 18.278C49.6257 18.9416 48.7256 19.3144 47.7872 19.3144C46.8485 19.3144 45.9486 18.9416 45.285 18.278C44.6214 17.6144 44.2485 16.7144 44.2485 15.7759C44.2485 14.8374 44.6214 13.9373 45.285 13.2737C45.9486 12.6101 46.8485 12.2373 47.7872 12.2373C48.7256 12.2373 49.6257 12.6101 50.2893 13.2737C50.9527 13.9373 51.3256 14.8374 51.3256 15.7759Z" stroke="#6460A7" stroke-width="5" stroke-linejoin="round"/>
</svg>
