<svg width="82" height="82" viewBox="0 0 82 82" fill="none" xmlns="http://www.w3.org/2000/svg">
<path d="M62.6468 57.9845C62.6468 58.733 62.1357 59.2724 61.4023 59.2724C60.6468 59.2724 60.1579 58.7 60.1579 57.9845C60.1579 57.269 60.6468 56.6967 61.4023 56.6967C62.1357 56.6967 62.6468 57.269 62.6468 57.9845ZM28.1134 56.6967C27.3245 56.6967 26.869 57.269 26.869 57.9845C26.869 58.7 27.3245 59.2724 28.1134 59.2724C28.8357 59.2724 29.3245 58.733 29.3245 57.9845C29.3134 57.269 28.8357 56.6967 28.1134 56.6967ZM41.169 56.6636C40.569 56.6636 40.2023 57.0489 40.1134 57.6213H42.2357C42.1357 56.9939 41.7468 56.6636 41.169 56.6636ZM53.1468 56.6967C52.3912 56.6967 51.9357 57.269 51.9357 57.9845C51.9357 58.7 52.3912 59.2724 53.1468 59.2724C53.9023 59.2724 54.3912 58.733 54.3912 57.9845C54.3912 57.269 53.9023 56.6967 53.1468 56.6967ZM64.9134 59.5696C64.9134 59.6026 64.9468 59.6246 64.9468 59.6907C64.9468 59.7237 64.9134 59.7457 64.9134 59.8118C64.8801 59.8448 64.8801 59.8668 64.8579 59.8998C64.8245 59.9329 64.8023 59.9549 64.7357 59.9549C64.7023 59.9879 64.6801 59.9879 64.6134 59.9879C64.5801 59.9879 64.5579 59.9879 64.4912 59.9549C64.4579 59.9549 64.4357 59.9218 64.4023 59.8998C64.369 59.8668 64.3468 59.8448 64.3468 59.8118C64.3134 59.7567 64.3134 59.7237 64.3134 59.6907C64.3134 59.6357 64.3134 59.6026 64.3468 59.5696C64.3468 59.5146 64.3801 59.4815 64.4023 59.4485C64.4357 59.4155 64.4579 59.4155 64.4912 59.3935C64.5468 59.3605 64.5801 59.3605 64.6134 59.3605C64.669 59.3605 64.7023 59.3605 64.7357 59.3935C64.7912 59.4265 64.8245 59.4265 64.8579 59.4485C64.8912 59.4705 64.8801 59.5146 64.9134 59.5696ZM64.669 59.7237C64.7245 59.7237 64.7245 59.6907 64.7579 59.6907C64.7912 59.6577 64.7912 59.6357 64.7912 59.6026C64.7912 59.5696 64.7912 59.5476 64.7579 59.5146C64.7245 59.5146 64.7023 59.4815 64.6357 59.4815H64.4579V59.8668H64.5468V59.7127H64.5801L64.7023 59.8668H64.7912L64.669 59.7237ZM72.9912 21.737V60.4832C72.9912 63.4002 70.6023 65.7668 67.6579 65.7668H14.3245C11.3801 65.7668 8.99121 63.4002 8.99121 60.4832V21.737C8.99121 18.82 11.3801 16.4534 14.3245 16.4534H67.6579C70.6023 16.4534 72.9912 18.82 72.9912 21.737ZM16.1023 37.1034C16.1023 45.5241 23.0023 52.3487 31.4912 52.3487C34.5134 52.3487 37.4801 51.4461 39.9912 49.806C31.8912 43.2786 31.9468 30.9612 39.9912 24.4338C37.4801 22.7827 34.5134 21.8911 31.4912 21.8911C23.0023 21.88 16.1023 28.7157 16.1023 37.1034ZM40.9912 49.0795C48.8245 43.0254 48.7912 31.2254 40.9912 25.1383C33.1912 31.2254 33.1579 43.0364 40.9912 49.0795ZM25.1801 57.4782C25.1801 56.5205 24.5468 55.8931 23.5468 55.8601C23.0357 55.8601 22.4912 56.0142 22.1245 56.5756C21.8579 56.1243 21.4023 55.8601 20.769 55.8601C20.3468 55.8601 19.9245 56.0142 19.5912 56.4545V55.9702H18.6801V60.0099H19.5912C19.5912 57.9295 19.3134 56.6856 20.5912 56.6856C21.7245 56.6856 21.5023 57.8084 21.5023 60.0099H22.3801C22.3801 57.9955 22.1023 56.6856 23.3801 56.6856C24.5134 56.6856 24.2912 57.7864 24.2912 60.0099H25.2023V57.4782H25.1801ZM30.169 55.9702H29.2912V56.4545C28.9912 56.0912 28.569 55.8601 27.9912 55.8601C26.8468 55.8601 25.969 56.7627 25.969 57.9845C25.969 59.2174 26.8468 60.109 27.9912 60.109C28.569 60.109 28.9912 59.8998 29.2912 59.5146V60.0209H30.169V55.9702ZM34.669 58.7881C34.669 57.137 32.1245 57.8855 32.1245 57.1149C32.1245 56.4875 33.4468 56.5866 34.1801 56.9939L34.5468 56.2784C33.5023 55.6069 31.1912 55.6179 31.1912 57.181C31.1912 58.7551 33.7357 58.0946 33.7357 58.8321C33.7357 59.5256 32.2357 59.4705 31.4357 58.9202L31.0468 59.6136C32.2912 60.4502 34.669 60.2741 34.669 58.7881ZM38.6023 59.8118L38.3579 59.0633C37.9357 59.2944 37.0023 59.5476 37.0023 58.612V56.7847H38.4579V55.9702H37.0023V54.7373H36.0912V55.9702H35.2468V56.7737H36.0912V58.612C36.0912 60.5493 38.0134 60.197 38.6023 59.8118ZM40.0801 58.3368H43.1357C43.1357 56.5536 42.3134 55.8491 41.2023 55.8491C40.0245 55.8491 39.1801 56.7187 39.1801 57.9735C39.1801 60.2301 41.6912 60.6043 42.9357 59.5366L42.5134 58.8761C41.6468 59.5806 40.3357 59.5146 40.0801 58.3368ZM46.6468 55.9702C46.1357 55.75 45.3579 55.772 44.9579 56.4545V55.9702H44.0468V60.0099H44.9579V57.7314C44.9579 56.4545 46.0134 56.6196 46.3801 56.8067L46.6468 55.9702ZM47.8245 57.9845C47.8245 56.7297 49.1134 56.3224 50.1245 57.0599L50.5468 56.3444C49.2579 55.3427 46.9134 55.8931 46.9134 57.9955C46.9134 60.175 49.4023 60.6153 50.5468 59.6467L50.1245 58.9312C49.1023 59.6467 47.8245 59.2174 47.8245 57.9845ZM55.2357 55.9702H54.3245V56.4545C53.4023 55.2437 51.0023 55.9261 51.0023 57.9845C51.0023 60.098 53.4912 60.7034 54.3245 59.5146V60.0209H55.2357V55.9702ZM58.9801 55.9702C58.7134 55.8381 57.7579 55.6509 57.2912 56.4545V55.9702H56.4134V60.0099H57.2912V57.7314C57.2912 56.5205 58.2912 56.5976 58.7134 56.8067L58.9801 55.9702ZM63.4579 54.3301H62.5801V56.4545C61.669 55.2547 59.2579 55.8931 59.2579 57.9845C59.2579 60.12 61.7579 60.6924 62.5801 59.5146V60.0209H63.4579V54.3301ZM64.3023 46.0634V46.5698H64.3912V46.0634H64.6023V45.9754H64.0912V46.0634H64.3023ZM65.0357 59.6907C65.0357 59.6357 65.0357 59.5696 65.0023 59.5146C64.969 59.4815 64.9468 59.4265 64.9134 59.3935C64.8801 59.3605 64.8245 59.3384 64.7912 59.3054C64.7357 59.3054 64.669 59.2724 64.6134 59.2724C64.5801 59.2724 64.5245 59.3054 64.4579 59.3054C64.4023 59.3384 64.369 59.3605 64.3357 59.3935C64.2801 59.4265 64.2468 59.4815 64.2468 59.5146C64.2134 59.5696 64.2134 59.6357 64.2134 59.6907C64.2134 59.7237 64.2134 59.7787 64.2468 59.8448C64.2468 59.8778 64.2801 59.9328 64.3357 59.9659C64.369 59.9989 64.3912 60.0209 64.4579 60.0539C64.5134 60.087 64.5801 60.087 64.6134 60.087C64.669 60.087 64.7357 60.087 64.7912 60.0539C64.8245 60.0209 64.8801 59.9989 64.9134 59.9659C64.9468 59.9328 64.969 59.8778 65.0023 59.8448C65.0357 59.7787 65.0357 59.7237 65.0357 59.6907ZM65.3912 45.9644H65.2357L65.0579 46.3496L64.8801 45.9644H64.7245V46.5588H64.8134V46.1075L64.9912 46.4927H65.1134L65.269 46.1075V46.5588H65.3912V45.9644ZM65.8801 37.1034C65.8801 28.7157 58.9801 21.88 50.4912 21.88C47.469 21.88 44.5023 22.7827 41.9912 24.4228C50.0023 30.9502 50.1245 43.3006 41.9912 49.795C44.5023 51.4461 47.4912 52.3377 50.4912 52.3377C58.9801 52.3487 65.8801 45.5241 65.8801 37.1034Z" fill="#6460A7"/>
</svg>
