<svg width="32" height="32" viewBox="0 0 32 32" fill="none" xmlns="http://www.w3.org/2000/svg">
<path d="M14.1565 5.80629C15.0502 8.48755 14.1377 11.1938 12.119 11.8563C10.1002 12.5188 7.73771 10.8813 6.84396 8.20004C5.95021 5.51879 6.86271 2.81254 8.88146 2.15004C10.9002 1.48754 13.2627 3.12504 14.1565 5.80629ZM6.27521 12.4125C7.45646 14.4375 7.16896 16.7938 5.63771 17.6688C4.10646 18.5438 1.90646 17.6125 0.731463 15.5875C-0.443537 13.5625 -0.168537 11.2063 1.36271 10.3313C2.89396 9.4563 5.09396 10.3875 6.26896 12.4125H6.27521ZM4.32521 25.075C7.60021 16.2438 13.419 14 16.0002 14C18.5815 14 24.4002 16.2438 27.6752 25.075C27.9002 25.6813 28.0002 26.3313 28.0002 26.9813V27.0813C28.0002 28.6938 26.694 30 25.0815 30C24.3627 30 23.6502 29.9125 22.9565 29.7375L17.4565 28.3625C16.5002 28.125 15.5002 28.125 14.544 28.3625L9.04396 29.7375C8.35021 29.9125 7.63771 30 6.91896 30C5.30646 30 4.00021 28.6938 4.00021 27.0813V26.9813C4.00021 26.3313 4.10021 25.6813 4.32521 25.075ZM26.3627 17.6688C24.8315 16.7938 24.544 14.4375 25.7252 12.4125C26.9065 10.3875 29.1002 9.4563 30.6315 10.3313C32.1627 11.2063 32.4502 13.5625 31.269 15.5875C30.0877 17.6125 27.894 18.5438 26.3627 17.6688ZM19.3815 11.8563C17.3627 11.1938 16.4502 8.48755 17.344 5.80629C18.2377 3.12504 20.6002 1.48754 22.619 2.15004C24.6377 2.81254 25.5502 5.51879 24.6565 8.20004C23.7627 10.8813 21.4002 12.5188 19.3815 11.8563Z" fill="white"/>
</svg>
