<svg width="83" height="82" viewBox="0 0 83 82" fill="none" xmlns="http://www.w3.org/2000/svg">
<path d="M40.3293 45.6484C41.0051 44.9725 42.1692 44.9725 42.8451 45.6484L52.4828 55.2861C54.2601 57.0634 56.6257 58.0397 59.129 58.0397H61.019L48.8655 70.1932C45.073 73.8856 38.9149 73.8856 35.1224 70.1932L22.9188 58.0022H24.0828C26.5861 58.0022 28.9518 57.0259 30.7291 55.2485L40.3293 45.6484ZM42.8451 36.4362C42.044 37.1246 41.0177 37.1371 40.3293 36.4362L30.7291 26.8361C28.9518 24.9461 26.5861 24.0824 24.0828 24.0824H22.9188L35.1099 11.8914C38.9149 8.08634 45.073 8.08634 48.8655 11.8914L61.0316 24.0449H59.129C56.6257 24.0449 54.2601 25.0212 52.4828 26.7985L42.8451 36.4362ZM24.0828 26.8986C25.8101 26.8986 27.3997 27.5996 28.7265 28.8262L38.3266 38.4263C39.2278 39.2149 40.4044 39.7781 41.5934 39.7781C42.77 39.7781 43.9465 39.2149 44.8477 38.4263L54.4854 28.7886C55.712 27.5745 57.4018 26.8736 59.129 26.8736H63.8478L71.1449 34.1707C74.9374 37.9632 74.9374 44.1214 71.1449 47.9139L63.8478 55.211H59.129C57.4018 55.211 55.712 54.51 54.4854 53.2834L44.8477 43.6457C43.1079 41.9059 40.0664 41.9059 38.3266 43.6582L28.7265 53.2459C27.3997 54.4725 25.8101 55.1734 24.0828 55.1734H20.1026L12.843 47.9139C9.038 44.1214 9.038 37.9632 12.843 34.1707L20.1026 26.8986H24.0828Z" fill="#6460A7"/>
</svg>
