<svg width="82" height="82" viewBox="0 0 82 82" fill="none" xmlns="http://www.w3.org/2000/svg">
<g clip-path="url(#clip0_445_63)">
<path d="M61.2236 38.2558C61.2236 38.2558 62.068 42.3891 62.2569 43.2558H58.5458C58.9125 42.2669 60.3236 38.4224 60.3236 38.4224C60.3013 38.4558 60.6902 37.4113 60.9125 36.7669L61.2236 38.2558ZM72.9902 21.4447V60.5558C72.9902 63.5002 70.6013 65.8891 67.6569 65.8891H14.3236C11.3791 65.8891 8.99023 63.5002 8.99023 60.5558V21.4447C8.99023 18.5002 11.3791 16.1113 14.3236 16.1113H67.6569C70.6013 16.1113 72.9902 18.5002 72.9902 21.4447ZM25.9347 49.3558L32.9569 32.1113H28.2347L23.868 43.8891L23.3902 41.5002L21.8347 33.5669C21.5791 32.4669 20.7902 32.1558 19.8125 32.1113H12.6236L12.5458 32.4558C14.3013 32.9002 15.868 33.5447 17.2347 34.3558L21.2125 49.3558H25.9347ZM36.4236 49.378L39.2236 32.1113H34.7569L31.968 49.378H36.4236ZM51.968 43.7336C51.9902 41.7669 50.7902 40.2669 48.2236 39.0336C46.6569 38.2447 45.7013 37.7113 45.7013 36.9002C45.7236 36.1669 46.5125 35.4113 48.268 35.4113C49.7236 35.378 50.7902 35.7224 51.5902 36.0669L51.9902 36.2558L52.6013 32.5224C51.7236 32.178 50.3236 31.7891 48.6013 31.7891C44.1902 31.7891 41.0902 34.1447 41.068 37.5002C41.0347 39.978 43.2902 41.3558 44.9791 42.1891C46.7013 43.0336 47.2902 43.5891 47.2902 44.3336C47.268 45.4891 45.8902 46.0224 44.6125 46.0224C42.8347 46.0224 41.8791 45.7447 40.4236 45.1002L39.8347 44.8224L39.2125 48.7002C40.2569 49.178 42.1902 49.6002 44.1902 49.6224C48.8791 49.6336 51.9347 47.3113 51.968 43.7336ZM67.6569 49.378L64.0569 32.1113H60.6013C59.5347 32.1113 58.7236 32.4224 58.268 33.5447L51.6347 49.378H56.3236C56.3236 49.378 57.0902 47.2447 57.2569 46.7891H62.9902C63.1236 47.4002 63.5236 49.378 63.5236 49.378H67.6569Z" fill="#6460A7"/>
</g>
<defs>
<clipPath id="clip0_445_63">
<rect width="64" height="56.8889" fill="white" transform="translate(8.99023 12.5557)"/>
</clipPath>
</defs>
</svg>
