<svg width="67" height="62" viewBox="0 0 67 62" fill="none" xmlns="http://www.w3.org/2000/svg">
<path d="M54.1641 10.0734C48.6461 4.54219 41.2974 1.5 33.4878 1.5C17.3682 1.5 4.2512 14.617 4.2512 30.7366C4.2512 35.8859 5.5945 40.9167 8.14941 45.3549L4.00098 60.5L19.5016 56.4306C23.7686 58.7616 28.5755 59.9864 33.4746 59.9864H33.4878C49.5943 59.9864 63.001 46.8694 63.001 30.7498C63.001 22.9402 59.6822 15.6047 54.1641 10.0734ZM33.4878 55.0609C29.1155 55.0609 24.8354 53.8888 21.1083 51.6763L20.226 51.1496L11.0336 53.5596L13.4831 44.5911L12.9037 43.6692C10.4673 39.7973 9.18982 35.3328 9.18982 30.7366C9.18982 17.3431 20.0943 6.43862 33.501 6.43862C39.9936 6.43862 46.0912 8.96719 50.6742 13.5634C55.2572 18.1596 58.0755 24.2571 58.0624 30.7498C58.0624 44.1565 46.8813 55.0609 33.4878 55.0609ZM46.8155 36.8605C46.0912 36.4917 42.4958 34.727 41.8242 34.49C41.1525 34.2397 40.6653 34.1212 40.178 34.8587C39.6907 35.5962 38.2947 37.2292 37.8601 37.7297C37.4387 38.217 37.0041 38.2828 36.2798 37.9141C31.9865 35.7674 29.1682 34.0817 26.3367 29.2221C25.586 27.9315 27.0874 28.0237 28.4833 25.2317C28.7204 24.7444 28.6019 24.323 28.4175 23.9542C28.2331 23.5855 26.7713 19.9902 26.1655 18.5283C25.5729 17.106 24.967 17.3036 24.5193 17.2772C24.0979 17.2509 23.6106 17.2509 23.1233 17.2509C22.636 17.2509 21.8458 17.4353 21.1742 18.1596C20.5025 18.8971 18.6193 20.6618 18.6193 24.2571C18.6193 27.8525 21.24 31.3292 21.5956 31.8165C21.9644 32.3038 26.745 39.6788 34.0804 42.8527C38.7162 44.8545 40.5336 45.0257 42.8514 44.6833C44.2606 44.4725 47.1711 42.9185 47.7769 41.2065C48.3827 39.4944 48.3827 38.0326 48.1983 37.7297C48.0271 37.4004 47.5398 37.2161 46.8155 36.8605Z" fill="#6460A7"/>
</svg>
