<svg width="60" height="62" viewBox="0 0 60 62" fill="none" xmlns="http://www.w3.org/2000/svg">
<path fill-rule="evenodd" clip-rule="evenodd" d="M14.8839 10.2152H45.1155C52.2124 9.97031 58.1739 15.6034 58.4512 22.824C58.4521 22.8469 58.4525 22.8698 58.4525 22.8927V39.1072C58.4525 39.1301 58.4521 39.153 58.4512 39.1759C58.1739 46.3967 52.2124 52.0297 45.1155 51.7847H14.8839C7.78709 52.0297 1.82544 46.3967 1.54819 39.1759C1.54731 39.153 1.54688 39.1301 1.54688 39.1072V22.8927C1.54688 22.8698 1.54731 22.8469 1.54819 22.8241C1.82544 15.6034 7.78708 9.97031 14.8839 10.2152ZM5.00793 22.9285V39.0714C5.22799 44.3485 9.59684 48.4581 14.7905 48.2658C14.8115 48.265 14.8325 48.2646 14.8535 48.2646H45.1459C45.1669 48.2646 45.1879 48.265 45.2089 48.2658C50.4026 48.4581 54.7714 44.3485 54.9915 39.0713V22.9286C54.7714 17.6516 50.4026 13.5418 45.2089 13.7341C45.1879 13.7349 45.1669 13.7353 45.1459 13.7353H14.8535C14.8325 13.7353 14.8115 13.7349 14.7905 13.7341C9.59686 13.5418 5.22799 17.6516 5.00793 22.9285Z" fill="#6460A7"/>
<path fill-rule="evenodd" clip-rule="evenodd" d="M26.3957 25.0149V36.9987C26.3981 37.0026 26.4023 37.0088 26.4092 37.0173C26.4433 37.0591 26.5316 37.1372 26.6957 37.1999C27.0357 37.3298 27.4249 37.2963 27.6973 37.1239L36.085 30.8882C36.1363 30.8501 36.1897 30.8148 36.245 30.7826C36.2604 30.7736 36.2702 30.7569 36.2702 30.7382C36.2702 30.72 36.2605 30.7029 36.2444 30.6934C36.2105 30.6736 36.1772 30.6527 36.1447 30.6306L27.719 24.9052C27.719 24.9051 27.719 24.9051 27.719 24.9051C27.4488 24.7216 27.0479 24.6814 26.6959 24.8156C26.5308 24.8786 26.4418 24.9571 26.4076 24.9988C26.4019 25.0057 26.3981 25.0111 26.3957 25.0149ZM25.4654 21.59C26.724 21.1099 28.3328 21.1483 29.6593 22.0496L29.6594 22.0496L38.0445 27.7475C39.0853 28.3829 39.7226 29.5153 39.7226 30.7382C39.7226 31.9466 39.1004 33.0671 38.0807 33.7065L29.7191 39.9228C29.6991 39.9377 29.6788 39.9521 29.6582 39.9661C28.3321 40.8656 26.7239 40.9064 25.4636 40.4249C24.2175 39.9489 22.9434 38.7815 22.9434 37.0022V25.0074C22.9434 23.2279 24.2232 22.0638 25.4654 21.59Z" fill="#6460A7"/>
</svg>
