<svg width="65" height="74" viewBox="0 0 65 74" fill="none" xmlns="http://www.w3.org/2000/svg">
<path d="M59.5404 30.8337C59.44 26.7912 59.1022 24.2139 57.9647 22.0145C56.3468 18.8864 53.4331 17.1457 47.6056 13.6642L42.189 10.4281C37.4342 7.58736 35.0568 6.16699 32.4993 6.16699C29.9419 6.16699 27.5645 7.58736 22.8097 10.4281L17.3931 13.6642C11.5656 17.1457 8.6519 18.8864 7.03397 22.0145C5.41602 25.1426 5.41602 29.0351 5.41602 36.8199V37.1807C5.41602 44.9655 5.41602 48.8582 7.03397 51.9862C8.6519 55.1143 11.5656 56.8548 17.3931 60.3365L22.8097 63.5725C27.5645 66.4132 29.9419 67.8337 32.4993 67.8337C35.0568 67.8337 37.4342 66.4132 42.189 63.5725L47.6056 60.3365C53.4331 56.8548 56.3468 55.1143 57.9647 51.9862C59.1022 49.7866 59.44 47.2095 59.5404 43.167" stroke="#6460A7" stroke-width="5" stroke-linecap="round"/>
<path d="M56.875 23.125L46.0417 29.2917M46.0417 29.2917C46.0417 29.2917 45.2164 29.7615 44.6875 30.0625C39.9279 32.7718 32.5 37 32.5 37M46.0417 29.2917V40.0833M46.0417 29.2917L20.3125 13.875M32.5 37L8.125 23.125M32.5 37V66.2917" stroke="#6460A7" stroke-width="5" stroke-linecap="round"/>
</svg>
