<svg width="57" height="57" viewBox="0 0 57 57" fill="none" xmlns="http://www.w3.org/2000/svg">
<path d="M33.25 52.25H23.75C14.7933 52.25 10.315 52.25 7.53248 49.4674C4.75 46.6851 4.75 42.2066 4.75 33.25V28.5C4.75 19.5433 4.75 15.065 7.53248 12.2825C10.315 9.5 14.7933 9.5 23.75 9.5H33.25C42.2066 9.5 46.6851 9.5 49.4674 12.2825C52.25 15.065 52.25 19.5433 52.25 28.5V33.25C52.25 42.2066 52.25 46.6851 49.4674 49.4674C47.9161 51.0188 45.8377 51.7052 42.75 52.0089" stroke="#6460A7" stroke-width="5" stroke-linecap="round"/>
<path d="M16.625 9.5V5.9375" stroke="#6460A7" stroke-width="5" stroke-linecap="round"/>
<path d="M40.375 9.5V5.9375" stroke="#6460A7" stroke-width="5" stroke-linecap="round"/>
<path d="M51.0625 21.375H39.4844H25.5312M4.75 21.375H13.9531" stroke="#6460A7" stroke-width="5" stroke-linecap="round"/>
<path d="M42.75 40.375C42.75 41.6867 41.6867 42.75 40.375 42.75C39.0633 42.75 38 41.6867 38 40.375C38 39.0633 39.0633 38 40.375 38C41.6867 38 42.75 39.0633 42.75 40.375Z" fill="#6460A7"/>
<path d="M42.75 30.875C42.75 32.1867 41.6867 33.25 40.375 33.25C39.0633 33.25 38 32.1867 38 30.875C38 29.5633 39.0633 28.5 40.375 28.5C41.6867 28.5 42.75 29.5633 42.75 30.875Z" fill="#6460A7"/>
<path d="M30.875 40.375C30.875 41.6867 29.8117 42.75 28.5 42.75C27.1883 42.75 26.125 41.6867 26.125 40.375C26.125 39.0633 27.1883 38 28.5 38C29.8117 38 30.875 39.0633 30.875 40.375Z" fill="#6460A7"/>
<path d="M30.875 30.875C30.875 32.1867 29.8117 33.25 28.5 33.25C27.1883 33.25 26.125 32.1867 26.125 30.875C26.125 29.5633 27.1883 28.5 28.5 28.5C29.8117 28.5 30.875 29.5633 30.875 30.875Z" fill="#6460A7"/>
<path d="M19 40.375C19 41.6867 17.9367 42.75 16.625 42.75C15.3133 42.75 14.25 41.6867 14.25 40.375C14.25 39.0633 15.3133 38 16.625 38C17.9367 38 19 39.0633 19 40.375Z" fill="#6460A7"/>
<path d="M19 30.875C19 32.1867 17.9367 33.25 16.625 33.25C15.3133 33.25 14.25 32.1867 14.25 30.875C14.25 29.5633 15.3133 28.5 16.625 28.5C17.9367 28.5 19 29.5633 19 30.875Z" fill="#6460A7"/>
</svg>
