<svg width="58" height="58" viewBox="0 0 58 58" fill="none" xmlns="http://www.w3.org/2000/svg">
<path fill-rule="evenodd" clip-rule="evenodd" d="M13.5929 10.6913C9.58363 12.524 6.64648 16.8829 6.64648 22.0809C6.64648 27.3912 8.8196 31.4843 11.9349 34.9924C14.5024 37.8834 17.6105 40.2796 20.6417 42.6165C21.3617 43.1716 22.0773 43.7233 22.7803 44.2774C24.0515 45.2796 25.1855 46.1591 26.2785 46.7978C27.3721 47.437 28.2524 47.7287 29.0006 47.7287C29.7488 47.7287 30.6292 47.437 31.7228 46.7978C32.8158 46.1591 33.9497 45.2796 35.2211 44.2774C35.9242 43.7233 36.6397 43.1716 37.3597 42.6165C40.3909 40.2796 43.499 37.8834 46.0664 34.9924C49.1818 31.4843 51.3548 27.3912 51.3548 22.0809C51.3548 16.8829 48.4176 12.524 44.4084 10.6913C40.5134 8.91095 35.2799 9.38244 30.3066 14.5497C29.9649 14.9046 29.4934 15.1052 29.0006 15.1052C28.5079 15.1052 28.0364 14.9046 27.6947 14.5497C22.7213 9.38244 17.4878 8.91095 13.5929 10.6913ZM29.0006 10.775C23.4132 5.77596 17.1565 5.07664 12.0858 7.39444C6.73037 9.84243 3.02148 15.5267 3.02148 22.0809C3.02148 28.5225 5.70519 33.4368 9.22439 37.3994C12.0426 40.5727 15.492 43.2289 18.5385 45.5745C19.2291 46.1061 19.899 46.6221 20.5361 47.1243C21.774 48.1001 23.1029 49.1407 24.4496 49.9276C25.7959 50.7142 27.3322 51.3537 29.0006 51.3537C30.6691 51.3537 32.2054 50.7142 33.5517 49.9276C34.8985 49.1407 36.2272 48.1001 37.4653 47.1243C38.1023 46.6221 38.7722 46.1061 39.4629 45.5745C42.5093 43.2289 45.9586 40.5727 48.777 37.3994C52.2961 33.4368 54.9798 28.5225 54.9798 22.0809C54.9798 15.5267 51.271 9.84243 45.9154 7.39444C40.8447 5.07664 34.5882 5.77596 29.0006 10.775Z" fill="#D65F36"/>
</svg>
