<svg width="64" height="64" viewBox="0 0 64 64" fill="none" xmlns="http://www.w3.org/2000/svg">
<path d="M53.0464 7.04047H56.8864C57.24 7.04047 57.5264 7.32691 57.5264 7.68047V11.5205C57.5264 15.762 54.088 19.2005 49.8464 19.2005H42.8064C38.5648 19.2005 35.1264 15.762 35.1264 11.5205V7.68047C35.1264 7.32691 35.4128 7.04047 35.7664 7.04047H39.6064C40.3133 7.04047 40.8864 6.46741 40.8864 5.76047C40.8864 5.05353 40.3133 4.48047 39.6064 4.48047H35.7664C33.999 4.48047 32.5664 5.91309 32.5664 7.68047V11.5205C32.5664 17.1758 37.151 21.7605 42.8064 21.7605H49.8464C55.5018 21.7605 60.0864 17.1758 60.0864 11.5205V7.68047C60.0864 5.91309 58.6538 4.48047 56.8864 4.48047H53.0464C52.3395 4.48047 51.7664 5.05353 51.7664 5.76047C51.7664 6.46741 52.3395 7.04047 53.0464 7.04047Z" fill="#D65F36"/>
<path d="M45.3656 21.4402V47.9362C45.3656 49.6932 43.9227 51.1362 42.1656 51.1362H37.0456C36.3387 51.1362 35.7656 51.7092 35.7656 52.4162C35.7656 53.1231 36.3387 53.6962 37.0456 53.6962H42.1656C45.3366 53.6962 47.9256 51.1071 47.9256 47.9362V21.4402C47.9256 20.7332 47.3526 20.1602 46.6456 20.1602C45.9387 20.1602 45.3656 20.7332 45.3656 21.4402Z" fill="#D65F36"/>
<path d="M35.7672 52.1601C35.7672 49.509 33.6183 47.3601 30.9672 47.3601C28.3161 47.3601 26.1672 49.509 26.1672 52.1601C26.1672 54.8112 28.3161 56.9601 30.9672 56.9601C33.6183 56.9601 35.7672 54.8112 35.7672 52.1601ZM38.3272 52.1601C38.3272 56.2251 35.0322 59.5201 30.9672 59.5201C26.9022 59.5201 23.6072 56.2251 23.6072 52.1601C23.6072 48.0951 26.9022 44.8001 30.9672 44.8001C35.0322 44.8001 38.3272 48.0951 38.3272 52.1601ZM30.6377 21.8244C34.1366 25.3233 34.1366 30.9964 30.6377 34.4961L21.1337 43.9994C19.8844 45.2487 17.858 45.2487 16.6087 43.9994L7.10455 34.4959C3.60574 30.9963 3.60574 25.3233 7.10474 21.8243C10.3164 18.6133 15.3588 18.3491 18.8712 21.032C22.3836 18.3491 27.4259 18.6133 30.6377 21.8244ZM17.9661 23.6346C15.4669 21.1354 11.4146 21.1354 8.91487 23.6346C6.41568 26.1338 6.41568 30.1861 8.91487 32.6858L18.4189 42.1891C18.6684 42.4387 19.074 42.4387 19.3236 42.1891L28.8274 32.6859C31.3267 30.1861 31.3267 26.1337 28.8276 23.6346C26.3278 21.1353 22.2754 21.1353 19.7763 23.6345C19.2764 24.1344 18.466 24.1344 17.9661 23.6345V23.6346Z" fill="#D65F36"/>
</svg>
