<svg width="54" height="48" viewBox="0 0 54 48" fill="none" xmlns="http://www.w3.org/2000/svg">
<path d="M21.0898 38.8848L21.0898 38.8848C20.3865 38.3304 19.6711 37.7788 18.9538 37.2257L18.947 37.2205L18.6417 37.6165L18.947 37.2205C15.9092 34.8785 12.8397 32.5103 10.3087 29.6604C7.24927 26.2152 5.14648 22.2353 5.14648 17.0809C5.14648 12.0702 7.97702 7.8939 11.8007 6.14608C15.4791 4.46472 20.4895 4.86263 25.3344 9.89639L25.3345 9.89642C25.7704 10.3493 26.372 10.6052 27.0006 10.6052C27.6293 10.6052 28.2309 10.3493 28.6668 9.89642L28.6669 9.89639C33.5117 4.86263 38.5222 4.46472 42.2005 6.14608C46.0242 7.89391 48.8548 12.0702 48.8548 17.0809C48.8548 22.2353 46.7521 26.2152 43.6926 29.6604C41.1617 32.5103 38.0922 34.8785 35.0544 37.2205L35.0543 37.2205L35.0483 37.2251C34.3308 37.7784 33.6151 38.3302 32.9116 38.8848C31.6354 39.8907 30.5285 40.7478 29.4705 41.3661L29.4705 41.3661C28.4118 41.9849 27.6219 42.2287 27.0006 42.2287C26.3794 42.2287 25.5895 41.9849 24.5308 41.3661L24.5308 41.3661C23.4728 40.7479 22.3658 39.8907 21.0898 38.8848ZM16.2335 40.9706L16.5222 40.5957L16.2335 40.9707C16.9244 41.5026 17.592 42.0168 18.2265 42.5169C19.46 43.4893 20.8157 44.552 22.1973 45.3593C23.5785 46.1663 25.2053 46.8537 27.0006 46.8537C28.796 46.8537 30.4228 46.1663 31.804 45.3593C33.1857 44.552 34.5412 43.4893 35.7748 42.517L35.7748 42.5169C36.4092 42.0168 37.0768 41.5026 37.7679 40.9707L37.7679 40.9706L37.781 40.9606C40.8184 38.622 44.3001 35.9412 47.1508 32.7314L46.777 32.3994L47.1508 32.7314C50.7256 28.7061 53.4798 23.6786 53.4798 17.0809C53.4798 10.3398 49.6646 4.47262 44.1232 1.9397C38.9571 -0.421758 32.6387 0.255717 27.0007 5.10977C21.3627 0.255713 15.0441 -0.421756 9.87796 1.9397C4.33669 4.47262 0.521484 10.3398 0.521484 17.0809C0.521484 23.6786 3.2757 28.7061 6.85054 32.7314C9.70094 35.941 13.1825 38.6216 16.2197 40.9601L16.2335 40.9706Z" fill="#D65F36" stroke="#D65F36"/>
</svg>
