<svg width="64" height="64" viewBox="0 0 64 64" fill="none" xmlns="http://www.w3.org/2000/svg">
<path d="M53.0464 7.54047H56.8864C56.9638 7.54047 57.0264 7.60305 57.0264 7.68047V11.5205C57.0264 15.4859 53.8118 18.7005 49.8464 18.7005H42.8064C38.841 18.7005 35.6264 15.4859 35.6264 11.5205V7.68047C35.6264 7.60305 35.689 7.54047 35.7664 7.54047H39.6064C40.5895 7.54047 41.3864 6.74355 41.3864 5.76047C41.3864 4.77739 40.5895 3.98047 39.6064 3.98047H35.7664C33.7229 3.98047 32.0664 5.63695 32.0664 7.68047V11.5205C32.0664 17.452 36.8749 22.2605 42.8064 22.2605H49.8464C55.7779 22.2605 60.5864 17.452 60.5864 11.5205V7.68047C60.5864 5.63695 58.9299 3.98047 56.8864 3.98047H53.0464C52.0633 3.98047 51.2664 4.77739 51.2664 5.76047C51.2664 6.74355 52.0633 7.54047 53.0464 7.54047Z" fill="#D65F36" stroke="#D65F36"/>
<path d="M44.8656 21.4402V47.9362C44.8656 49.4171 43.6465 50.6362 42.1656 50.6362H37.0456C36.0625 50.6362 35.2656 51.4331 35.2656 52.4162C35.2656 53.3992 36.0625 54.1962 37.0456 54.1962H42.1656C45.6127 54.1962 48.4256 51.3832 48.4256 47.9362V21.4402C48.4256 20.4571 47.6287 19.6602 46.6456 19.6602C45.6625 19.6602 44.8656 20.4571 44.8656 21.4402Z" fill="#D65F36" stroke="#D65F36"/>
<path d="M30.9913 21.4708L30.9913 21.4708C27.6914 18.1717 22.5622 17.8191 18.8712 20.4123C15.1802 17.8191 10.0509 18.1717 6.75123 21.4707L6.75119 21.4707C3.05691 25.165 3.05695 31.1546 6.75096 34.8494L6.75101 34.8495L16.2551 44.353C17.6997 45.7975 20.0427 45.7975 21.4873 44.353L30.9913 34.8497L30.9913 34.8496C34.6854 31.1547 34.6855 25.165 30.9913 21.4708ZM17.6126 23.9881L18.4661 24.8417V24.463C19.0452 24.5977 19.6785 24.4394 20.1299 23.9881L19.7763 23.6345L20.1299 23.9881C22.4337 21.6842 26.1695 21.6841 28.4741 23.9882C30.7779 26.292 30.778 30.0278 28.4739 32.3323C28.4739 32.3324 28.4739 32.3324 28.4738 32.3324L18.97 41.8356L18.97 41.8356C18.9157 41.8899 18.8267 41.8899 18.7724 41.8356L18.7724 41.8356L9.26846 32.3323C9.26844 32.3322 9.26842 32.3322 9.26841 32.3322C6.96448 30.0278 6.96453 26.2921 9.26838 23.9882C11.5729 21.6842 15.3087 21.6842 17.6126 23.9881ZM30.9672 47.8601C33.3422 47.8601 35.2672 49.7851 35.2672 52.1601C35.2672 54.5351 33.3422 56.4601 30.9672 56.4601C28.5922 56.4601 26.6672 54.5351 26.6672 52.1601C26.6672 49.7851 28.5922 47.8601 30.9672 47.8601ZM30.9672 60.0201C35.3083 60.0201 38.8272 56.5012 38.8272 52.1601C38.8272 47.8189 35.3083 44.3001 30.9672 44.3001C26.626 44.3001 23.1072 47.8189 23.1072 52.1601C23.1072 56.5012 26.626 60.0201 30.9672 60.0201Z" fill="#D65F36" stroke="#D65F36"/>
</svg>
