<svg width="55" height="55" viewBox="0 0 55 55" fill="none" xmlns="http://www.w3.org/2000/svg">
<g clip-path="url(#clip0_503_180)">
<path d="M31.2157 20.625C29.0479 20.625 19.7409 20.8377 13.75 29.8579L13.75 20.625C13.75 14.9381 9.12441 10.3125 3.4375 10.3125C1.53935 10.3125 -7.35606e-07 11.8519 -9.01547e-07 13.75C-1.06749e-06 15.6481 1.53935 17.1875 3.4375 17.1875C5.33242 17.1875 6.875 18.7301 6.875 20.625L6.875 48.125C6.875 51.917 9.958 55 13.75 55L32.6562 55C33.6059 55 34.375 54.2309 34.375 53.2813L34.375 51.5625C34.375 49.6644 32.8356 48.125 30.9375 48.125L27.5 48.125L41.25 37.8125L41.25 53.2813C41.25 54.2309 42.0191 55 42.9687 55L46.4062 55C47.3559 55 48.125 54.2309 48.125 53.2813L48.125 31.1373C47.0196 31.4241 45.881 31.625 44.6875 31.625C38.0477 31.625 32.493 26.8931 31.2157 20.625ZM48.125 10.3125L41.25 10.3125L34.375 3.4375L34.375 17.875C34.375 23.5705 38.992 28.1875 44.6875 28.1875C50.383 28.1875 55 23.5705 55 17.875L55 3.4375L48.125 10.3125ZM40.3906 18.9063C39.441 18.9063 38.6719 18.1371 38.6719 17.1875C38.6719 16.2379 39.441 15.4688 40.3906 15.4688C41.3402 15.4688 42.1094 16.2379 42.1094 17.1875C42.1094 18.1371 41.3402 18.9063 40.3906 18.9063ZM48.9844 18.9063C48.0348 18.9063 47.2656 18.1371 47.2656 17.1875C47.2656 16.2379 48.0348 15.4688 48.9844 15.4688C49.934 15.4688 50.7031 16.2379 50.7031 17.1875C50.7031 18.1371 49.934 18.9063 48.9844 18.9063Z" fill="black"/>
</g>
<defs>
<clipPath id="clip0_503_180">
<rect width="55" height="55" fill="white"/>
</clipPath>
</defs>
</svg>
