<svg width="65" height="65" viewBox="0 0 65 65" fill="none" xmlns="http://www.w3.org/2000/svg">
<path d="M33.6355 28.8886L50.5558 34.9316V59.5831C50.5558 60.062 50.3655 60.5212 50.0269 60.8598C49.6883 61.1984 49.2291 61.3886 48.7502 61.3886H41.528C41.0491 61.3886 40.5899 61.1984 40.2513 60.8598C39.9127 60.5212 39.7224 60.062 39.7224 59.5831V46.9442H21.6669V59.5831C21.6669 60.062 21.4767 60.5212 21.138 60.8598C20.7994 61.1984 20.3402 61.3886 19.8613 61.3886H12.6391C12.1602 61.3886 11.701 61.1984 11.3624 60.8598C11.0238 60.5212 10.8335 60.062 10.8335 59.5831V35.4439C6.64015 33.9487 3.61133 29.9787 3.61133 25.2775C3.61133 24.3198 3.99178 23.4013 4.669 22.7241C5.34621 22.0469 6.26471 21.6664 7.22244 21.6664C8.18017 21.6664 9.09867 22.0469 9.77588 22.7241C10.4531 23.4013 10.8335 24.3198 10.8335 25.2775C10.8353 26.2347 11.2164 27.1522 11.8932 27.829C12.57 28.5058 13.4875 28.8869 14.4447 28.8886H33.6355ZM61.3891 16.2498V19.8609C61.3891 21.7763 60.6282 23.6133 59.2738 24.9677C57.9193 26.3222 56.0823 27.0831 54.1669 27.0831H50.5558V31.0982L36.1113 25.9399V9.02753C36.1113 7.41946 38.0546 6.61373 39.1932 7.75123L42.2717 10.8331H48.3237C49.5548 10.8331 51.0038 11.7268 51.5533 12.8294L52.3613 14.4442H59.5835C60.0624 14.4442 60.5217 14.6344 60.8603 14.973C61.1989 15.3116 61.3891 15.7709 61.3891 16.2498ZM48.7502 16.2498C48.7502 15.8926 48.6443 15.5436 48.4459 15.2466C48.2475 14.9497 47.9655 14.7183 47.6356 14.5816C47.3057 14.445 46.9427 14.4092 46.5924 14.4789C46.2422 14.5486 45.9204 14.7205 45.6679 14.973C45.4154 15.2255 45.2435 15.5473 45.1738 15.8975C45.1041 16.2478 45.1399 16.6108 45.2765 16.9407C45.4132 17.2706 45.6446 17.5526 45.9415 17.751C46.2385 17.9494 46.5876 18.0553 46.9447 18.0553C47.4235 18.0553 47.8828 17.8651 48.2214 17.5265C48.56 17.1879 48.7502 16.7286 48.7502 16.2498Z" fill="black"/>
</svg>
