<svg width="50" height="50" viewBox="0 0 50 50" fill="none" xmlns="http://www.w3.org/2000/svg">
<g clip-path="url(#clip0_503_188)">
<path d="M28.1247 16.3283V13.5842C25.3707 10.0393 23.525 5.84006 22.8414 1.35764C22.6364 0.03928 20.986 -0.478298 20.1266 0.547093C18.0661 2.97873 16.445 5.8303 15.3512 8.99436C18.6911 12.7346 23.1637 15.303 28.1247 16.3283ZM39.0621 6.25022C34.7457 6.25022 31.2497 9.75608 31.2497 14.0725V19.8733C21.0543 19.2678 12.402 12.9885 8.49574 4.08225C7.95863 2.86155 6.23012 2.79319 5.66371 3.99436C4.04262 7.42209 3.12465 11.2502 3.12465 15.2932C3.12465 22.2072 6.45473 28.6623 11.4352 33.4475C12.7243 34.6877 13.984 35.7131 15.234 36.6506L1.18129 40.1662C0.136369 40.4299 -0.332381 41.6408 0.253557 42.549C1.95278 45.176 6.15199 49.6291 15.2145 50.0002C15.9957 50.0295 16.777 49.7463 17.3727 49.2287L23.7399 43.7502H31.2497C39.8825 43.7502 46.8746 36.7678 46.8746 28.135V12.5002L49.9996 6.25022H39.0621ZM39.0621 15.635C38.2028 15.635 37.4996 14.9319 37.4996 14.0725C37.4996 13.2131 38.2028 12.51 39.0621 12.51C39.9215 12.51 40.6246 13.2131 40.6246 14.0725C40.6246 14.9319 39.9215 15.635 39.0621 15.635Z" fill="black"/>
</g>
<defs>
<clipPath id="clip0_503_188">
<rect width="50" height="50" fill="white"/>
</clipPath>
</defs>
</svg>
