<svg width="65" height="65" viewBox="0 0 65 65" fill="none" xmlns="http://www.w3.org/2000/svg">
<g clip-path="url(#clip0_503_200)">
<path d="M64.9996 32.4996C64.9996 30.3998 63.188 26.5632 59.2093 23.105C56.9383 21.1516 54.3501 19.6008 51.5565 18.5195C51.4636 18.4847 51.3611 18.4858 51.2689 18.5224C51.1767 18.559 51.1014 18.6285 51.0576 18.7175C51.0386 18.7543 51.0195 18.7899 50.9979 18.8267L49.7805 20.8453C47.7273 24.3906 46.6469 28.4153 46.6484 32.5122C46.65 36.6091 47.7335 40.6329 49.7893 44.1767L49.8185 44.2262L50.9281 46.2575C50.987 46.3654 51.083 46.4482 51.1983 46.4907C51.3136 46.5332 51.4405 46.5324 51.5553 46.4885C60.8901 42.8361 64.9996 35.7356 64.9996 32.4996ZM53.0762 32.4818C52.6555 32.5368 52.2281 32.4587 51.8541 32.2585C51.48 32.0582 51.1781 31.7459 50.9906 31.3653C50.8031 30.9847 50.7395 30.555 50.8087 30.1364C50.8779 29.7178 51.0764 29.3314 51.3764 29.0314C51.6764 28.7314 52.0629 28.5328 52.4814 28.4636C52.9 28.3944 53.3298 28.458 53.7104 28.6455C54.091 28.833 54.4033 29.135 54.6035 29.509C54.8038 29.8831 54.8819 30.3104 54.8268 30.7311C54.7688 31.1751 54.5657 31.5874 54.2491 31.904C53.9325 32.2206 53.5201 32.4237 53.0762 32.4818Z" fill="black"/>
<path d="M42.5868 32.4998C42.5851 27.6837 43.8588 22.953 46.2786 18.7888L46.2938 18.7622L46.8804 17.7885C46.9228 17.7191 46.9479 17.6405 46.9536 17.5595C46.9593 17.4784 46.9455 17.3971 46.9133 17.3224C46.8811 17.2478 46.8314 17.182 46.7684 17.1305C46.7055 17.0791 46.6311 17.0435 46.5516 17.0267C44.9081 16.683 43.2427 16.4543 41.5674 16.3425C41.3698 16.3297 41.1804 16.2591 41.0228 16.1393C38.5751 14.2782 33.7229 11.0231 28.7769 10.1865C28.4389 10.1305 28.0922 10.1609 27.7691 10.2749C27.446 10.3888 27.157 10.5827 26.929 10.8383C26.7009 11.094 26.5412 11.4032 26.4648 11.7372C26.3883 12.0711 26.3976 12.419 26.4917 12.7484L27.8399 17.4673C27.875 17.5896 27.8629 17.7205 27.806 17.8343C27.7491 17.9481 27.6516 18.0364 27.5327 18.0817C22.8545 19.8197 18.825 23.0012 15.886 25.426C15.7062 25.5732 15.4812 25.6543 15.2488 25.6556C15.0164 25.657 14.7905 25.5786 14.6089 25.4336C14.2094 25.1162 13.7993 24.8035 13.3787 24.4954C8.34629 20.8201 2.43408 20.3364 2.18525 20.3186C1.86933 20.2948 1.5522 20.3451 1.25921 20.4657C0.966223 20.5863 0.705503 20.7737 0.497886 21.013C0.290269 21.2524 0.141513 21.5369 0.0635064 21.844C-0.0145 22.1511 -0.0195938 22.4721 0.0486323 22.7815C0.101953 23.0265 1.21533 27.9472 4.07305 31.8726C4.20169 32.0486 4.27103 32.2609 4.27103 32.4788C4.27103 32.6968 4.20169 32.9091 4.07305 33.085C1.21533 37.0092 0.101953 41.9311 0.0486323 42.1762C-0.0195938 42.4855 -0.0145 42.8066 0.0635064 43.1137C0.141513 43.4208 0.290269 43.7053 0.497886 43.9446C0.705503 44.184 0.966223 44.3714 1.25921 44.492C1.5522 44.6125 1.86933 44.6629 2.18525 44.639C2.43916 44.6213 8.34629 44.1312 13.3724 40.4648C13.7828 40.1635 14.1836 39.858 14.5746 39.5482C14.7564 39.4033 14.9823 39.3252 15.2148 39.3268C15.4472 39.3284 15.672 39.4097 15.8518 39.5571C18.8034 41.9933 22.8405 45.1786 27.5314 46.9204C27.65 46.9657 27.7473 47.0538 27.8042 47.1673C27.8611 47.2808 27.8734 47.4115 27.8387 47.5336L26.4853 52.2537C26.3912 52.5831 26.382 52.931 26.4584 53.2649C26.5349 53.5989 26.6946 53.9081 26.9226 54.1638C27.1507 54.4194 27.4397 54.6133 27.7628 54.7272C28.0858 54.8412 28.4325 54.8716 28.7705 54.8156C30.949 54.4474 35.3568 53.183 40.9644 48.8704C41.1245 48.7482 41.3169 48.6754 41.5179 48.6609C43.1911 48.5513 44.8547 48.3265 46.497 47.9881C46.5745 47.9718 46.6471 47.9376 46.7091 47.8883C46.771 47.8389 46.8206 47.7758 46.8538 47.7038C46.8869 47.6319 46.9028 47.5532 46.9002 47.4741C46.8975 47.3949 46.8764 47.3175 46.8385 47.2479L46.2659 46.1955C43.8532 42.0346 42.584 37.3096 42.5868 32.4998Z" fill="black"/>
</g>
<defs>
<clipPath id="clip0_503_200">
<rect width="65" height="65" fill="white"/>
</clipPath>
</defs>
</svg>
