<svg width="55" height="55" viewBox="0 0 55 55" fill="none" xmlns="http://www.w3.org/2000/svg">
<g clip-path="url(#clip0_503_195)">
<path d="M42.6376 12.359C41.9825 8.8069 38.8811 6.11133 35.139 6.11133C31.3931 6.11133 28.2908 8.81263 27.6395 12.3695C12.103 13.8419 -0.0476028 26.9388 0.000140212 42.8716C0.0106437 46.2059 2.77688 48.8891 6.11125 48.8891H35.139C35.9831 48.8891 36.6668 48.2054 36.6668 47.3613C36.6668 45.6741 35.2985 44.3058 33.6112 44.3058H26.0211L29.4395 39.6909C31.7445 36.2315 30.4277 31.2614 26.2206 29.5121C23.9395 28.5639 21.2983 29.0681 19.3227 30.551L16.1946 32.899C15.5205 33.406 14.5627 33.2723 14.0547 32.5944C13.5487 31.9184 13.6843 30.9606 14.3593 30.4546L17.6803 27.9633C21.1981 25.3222 26.1099 25.326 29.6285 27.9633C30.6665 28.7415 34.0085 31.693 33.5244 36.8636L44.8423 48.8891H53.4724C54.3165 48.8891 55.0001 48.2054 55.0001 47.3613C55.0001 45.6741 53.6318 44.3058 51.9446 44.3058H46.8237L37.4164 34.3103L52.1632 26.0364C53.0238 25.5538 53.7402 24.8506 54.2388 23.9992C54.7374 23.1479 55.0002 22.179 55.0001 21.1924C55.0001 19.149 53.881 17.2822 52.0897 16.3007C48.2168 14.1789 42.6376 12.359 42.6376 12.359ZM35.139 16.0419C33.8729 16.0419 32.8474 15.0154 32.8474 13.7502C32.8474 12.4841 33.8729 11.4585 35.139 11.4585C36.4042 11.4585 37.4307 12.4841 37.4307 13.7502C37.4307 15.0154 36.4042 16.0419 35.139 16.0419Z" fill="black"/>
</g>
<defs>
<clipPath id="clip0_503_195">
<rect width="55" height="55" fill="white"/>
</clipPath>
</defs>
</svg>
