<svg width="65" height="65" viewBox="0 0 65 65" fill="none" xmlns="http://www.w3.org/2000/svg">
<path d="M18.0273 17.8242V17.875L14.2188 14.6758C17.1133 13.127 20.2871 12.2637 23.7402 12.2637C27.1934 12.2637 30.3926 13.127 33.1602 14.625L29.3516 17.8242H18.0273ZM38.3145 33.9473C44.5859 33.9473 49.7402 39.1016 49.7402 45.373V46.5156C49.6895 48.9277 47.7344 50.832 45.3223 50.832C42.9102 50.832 40.9551 48.9277 40.9043 46.5156V45.373C40.9043 43.9258 39.7617 42.8086 38.3398 42.8086C35.877 42.8086 33.8711 40.8027 33.8711 38.3398C33.8711 35.877 35.8516 33.9473 38.3145 33.9473ZM8.6582 33.8457C11.1211 33.8457 13.1269 35.8516 13.1269 38.3145V46.541C13.0254 48.9023 11.1211 50.8066 8.70898 50.8066C6.29687 50.8066 4.39257 48.9023 4.29101 46.541V38.2383C4.24023 35.8008 6.24609 33.8457 8.6582 33.8457ZM0.837887 36.1562C0.837887 35.0645 1.19335 33.998 1.70116 33.1094C2.25976 33.5156 2.89452 33.7695 3.65624 33.7695C2.61523 35.0137 2.00585 36.5625 2.00585 38.2383V39.6348C1.19335 38.6699 0.837887 37.4512 0.837887 36.1562ZM31.5605 38.3652C31.5605 39.8125 32.0176 41.082 32.7539 42.1738C29.8086 42.834 26.7871 43.2148 23.6895 43.2148C20.7949 43.2148 18.0781 42.9102 15.3867 42.3516V38.2891C15.3867 36.6387 14.7773 35.0898 13.7871 33.9727H33.2109C32.2461 35.166 31.5605 36.6641 31.5605 38.3652ZM33.2617 33.998C33.2109 33.998 33.2617 33.9473 33.2617 33.9473V33.998ZM2.58984 30.4941C2.58984 29.8848 3.09765 29.3008 3.73241 29.3008H3.88476C4.74804 23.791 7.79492 18.9922 12.1875 15.9707L16.6562 19.7285C14.1934 22.623 12.4922 25.8477 11.5019 29.3516H13.9141C15.0059 26.0508 16.8086 22.8516 19.373 20.2363H27.7266C30.291 22.9023 32.043 26 33.1855 29.3516H35.5977C34.6074 25.9492 32.9824 22.75 30.5449 19.9824L35.2422 16.0215C39.5586 19.1191 42.707 23.8418 43.5449 29.3516H43.8496C44.459 29.3516 44.9922 29.8594 44.9922 30.4941C44.9922 31.1035 44.4844 31.6367 43.8496 31.6367H3.7832C3.09765 31.6367 2.58984 31.1035 2.58984 30.4941ZM44.2812 33.0078C45.5254 32.8555 46.541 31.8145 46.541 30.4941V28.2344C46.541 23.4863 50.3496 19.627 55.1484 19.627C59.8965 19.627 63.7559 23.4355 63.7559 28.2344V30.4941C63.7559 31.7383 62.7148 32.7539 61.4961 32.7539H55.2754C54.7168 35.6484 53.1172 38.0098 50.8066 39.7109C49.4863 36.7656 47.1758 34.4551 44.2812 33.0078ZM58.8555 26.6348C59.6172 26.6348 60.3027 26.0254 60.3027 25.1875C60.3027 24.4258 59.6934 23.7402 58.8555 23.7402C58.0176 23.7402 57.4082 24.3496 57.4082 25.1875C57.4336 26 58.043 26.6348 58.8555 26.6348Z" fill="black"/>
<path d="M18.0273 17.875V17.8242H29.3516L33.1602 14.625L35.2422 16.0215L30.5449 19.9824C32.9824 22.75 34.6074 25.9492 35.5977 29.3516H33.1855C32.043 26 30.291 22.9023 27.7266 20.2363H19.373C16.8086 22.8516 15.0059 26.0508 13.9141 29.3516H11.5019C12.4922 25.8477 14.1934 22.623 16.6562 19.7285L12.1875 15.9707L14.2188 14.6758L18.0273 17.875Z" fill="black"/>
</svg>
