<svg width="50" height="45" viewBox="0 0 50 45" fill="none" xmlns="http://www.w3.org/2000/svg">
<path d="M25.5 3C19.5265 3 14.6667 7.84016 14.6667 13.7895C14.6667 19.7388 19.5265 24.5789 25.5 24.5789C31.4735 24.5789 36.3333 19.7388 36.3333 13.7895C36.3333 7.84016 31.4735 3 25.5 3ZM25.5 20.2632C21.9163 20.2632 19 17.3586 19 13.7895C19 10.2203 21.9163 7.31579 25.5 7.31579C29.0837 7.31579 32 10.2203 32 13.7895C32 17.3586 29.0837 20.2632 25.5 20.2632ZM45 44V41.8421C45 33.5148 38.1945 26.7368 29.8333 26.7368H21.1667C12.8033 26.7368 6 33.5148 6 41.8421V44H10.3333V41.8421C10.3333 35.8928 15.1932 31.0526 21.1667 31.0526H29.8333C35.8068 31.0526 40.6667 35.8928 40.6667 41.8421V44H45Z" fill="#6460A7"/>
</svg>
