<svg width="65" height="45" viewBox="0 0 65 45" fill="none" xmlns="http://www.w3.org/2000/svg">
<path d="M65.0004 22.4998C65.0004 20.4 63.1888 16.5635 59.2101 13.1053C56.9391 11.1519 54.3509 9.60103 51.5573 8.51971C51.4644 8.48496 51.3619 8.48598 51.2697 8.52258C51.1775 8.55918 51.1022 8.62874 51.0584 8.71776C51.0394 8.75457 51.0203 8.79012 50.9987 8.82694L49.7812 10.8455C47.7281 14.3908 46.6477 18.4155 46.6492 22.5124C46.6508 26.6093 47.7343 30.6332 49.7901 34.1769L49.8193 34.2264L50.9289 36.2577C50.9878 36.3656 51.0838 36.4485 51.1991 36.4909C51.3144 36.5334 51.4413 36.5327 51.5561 36.4888C60.8909 32.8363 65.0004 25.7358 65.0004 22.4998ZM53.077 22.482C52.6563 22.537 52.2289 22.4589 51.8549 22.2587C51.4808 22.0585 51.1789 21.7461 50.9914 21.3655C50.8039 20.9849 50.7403 20.5552 50.8095 20.1366C50.8787 19.718 51.0772 19.3316 51.3772 19.0316C51.6772 18.7316 52.0636 18.5331 52.4822 18.4639C52.9008 18.3947 53.3306 18.4583 53.7112 18.6458C54.0918 18.8332 54.4041 19.1352 54.6043 19.5092C54.8046 19.8833 54.8827 20.3106 54.8276 20.7313C54.7696 21.1753 54.5665 21.5876 54.2499 21.9042C53.9333 22.2208 53.5209 22.424 53.077 22.482Z" fill="black"/>
<path d="M42.5868 22.4998C42.5851 17.6837 43.8588 12.953 46.2786 8.78885L46.2938 8.76219L46.8804 7.78846C46.9228 7.71908 46.9479 7.64055 46.9536 7.55945C46.9593 7.47835 46.9455 7.39707 46.9133 7.32242C46.8811 7.24778 46.8314 7.18197 46.7684 7.13051C46.7055 7.07906 46.6311 7.04347 46.5516 7.02674C44.9081 6.68299 43.2427 6.45434 41.5674 6.34246C41.3698 6.3297 41.1804 6.25905 41.0228 6.13934C38.5751 4.2782 33.7229 1.02313 28.7769 0.186504C28.4389 0.130499 28.0922 0.160894 27.7691 0.27486C27.446 0.388827 27.157 0.582661 26.929 0.838332C26.7009 1.094 26.5412 1.4032 26.4648 1.73716C26.3883 2.07112 26.3976 2.419 26.4917 2.74842L27.8399 7.46727C27.875 7.58955 27.8629 7.72054 27.806 7.83433C27.7491 7.94811 27.6516 8.0364 27.5327 8.08172C22.8545 9.81971 18.825 13.0012 15.886 15.426C15.7062 15.5732 15.4812 15.6543 15.2488 15.6556C15.0164 15.657 14.7905 15.5786 14.6089 15.4336C14.2094 15.1162 13.7993 14.8035 13.3787 14.4954C8.34629 10.8201 2.43408 10.3364 2.18525 10.3186C1.86933 10.2948 1.5522 10.3451 1.25921 10.4657C0.966223 10.5863 0.705503 10.7737 0.497886 11.013C0.290269 11.2524 0.141513 11.5369 0.0635064 11.844C-0.0145 12.1511 -0.0195938 12.4721 0.0486323 12.7815C0.101953 13.0265 1.21533 17.9472 4.07305 21.8726C4.20169 22.0486 4.27103 22.2609 4.27103 22.4788C4.27103 22.6968 4.20169 22.9091 4.07305 23.085C1.21533 27.0092 0.101953 31.9311 0.0486323 32.1762C-0.0195938 32.4855 -0.0145 32.8066 0.0635064 33.1137C0.141513 33.4208 0.290269 33.7053 0.497886 33.9446C0.705503 34.184 0.966223 34.3714 1.25921 34.492C1.5522 34.6125 1.86933 34.6629 2.18525 34.639C2.43916 34.6213 8.34629 34.1312 13.3724 30.4648C13.7828 30.1635 14.1836 29.858 14.5746 29.5482C14.7564 29.4033 14.9823 29.3252 15.2148 29.3268C15.4472 29.3284 15.672 29.4097 15.8518 29.5571C18.8034 31.9933 22.8405 35.1786 27.5314 36.9204C27.65 36.9657 27.7473 37.0538 27.8042 37.1673C27.8611 37.2808 27.8734 37.4115 27.8387 37.5336L26.4853 42.2537C26.3912 42.5831 26.382 42.931 26.4584 43.2649C26.5349 43.5989 26.6946 43.9081 26.9226 44.1638C27.1507 44.4194 27.4397 44.6133 27.7628 44.7272C28.0858 44.8412 28.4325 44.8716 28.7705 44.8156C30.949 44.4474 35.3568 43.183 40.9644 38.8704C41.1245 38.7482 41.3169 38.6754 41.5179 38.6609C43.1911 38.5513 44.8547 38.3265 46.497 37.9881C46.5745 37.9718 46.6471 37.9376 46.7091 37.8883C46.771 37.8389 46.8206 37.7758 46.8538 37.7038C46.8869 37.6319 46.9028 37.5532 46.9002 37.4741C46.8975 37.3949 46.8764 37.3175 46.8385 37.2479L46.2659 36.1955C43.8532 32.0346 42.584 27.3096 42.5868 22.4998Z" fill="black"/>
</svg>
