<svg width="59" height="55" viewBox="0 0 59 55" fill="none" xmlns="http://www.w3.org/2000/svg">
<path d="M30.6355 21.8886L47.5558 27.9316V52.5831C47.5558 53.062 47.3655 53.5212 47.0269 53.8598C46.6883 54.1984 46.2291 54.3886 45.7502 54.3886H38.528C38.0491 54.3886 37.5899 54.1984 37.2513 53.8598C36.9127 53.5212 36.7224 53.062 36.7224 52.5831V39.9442H18.6669V52.5831C18.6669 53.062 18.4767 53.5212 18.138 53.8598C17.7994 54.1984 17.3402 54.3886 16.8613 54.3886H9.63911C9.16024 54.3886 8.70099 54.1984 8.36239 53.8598C8.02378 53.5212 7.83355 53.062 7.83355 52.5831V28.4439C3.64015 26.9487 0.611328 22.9787 0.611328 18.2775C0.611328 17.3198 0.991783 16.4013 1.669 15.7241C2.34621 15.0469 3.26471 14.6664 4.22244 14.6664C5.18017 14.6664 6.09867 15.0469 6.77588 15.7241C7.45309 16.4013 7.83355 17.3198 7.83355 18.2775C7.83534 19.2347 8.21637 20.1522 8.8932 20.829C9.57002 21.5058 10.4875 21.8869 11.4447 21.8886H30.6355ZM58.3891 9.24975V12.8609C58.3891 14.7763 57.6282 16.6133 56.2738 17.9677C54.9193 19.3222 53.0823 20.0831 51.1669 20.0831H47.5558V24.0982L33.1113 18.9399V2.02753C33.1113 0.419458 35.0546 -0.386271 36.1932 0.751229L39.2717 3.83309H45.3237C46.5548 3.83309 48.0038 4.72684 48.5533 5.82935L49.3613 7.4442H56.5835C57.0624 7.4442 57.5217 7.63443 57.8603 7.97303C58.1989 8.31164 58.3891 8.77089 58.3891 9.24975ZM45.7502 9.24975C45.7502 8.89265 45.6443 8.54356 45.4459 8.24664C45.2475 7.94972 44.9655 7.7183 44.6356 7.58164C44.3057 7.44498 43.9427 7.40922 43.5924 7.47889C43.2422 7.54856 42.9204 7.72052 42.6679 7.97303C42.4154 8.22554 42.2435 8.54726 42.1738 8.89751C42.1041 9.24775 42.1399 9.61079 42.2765 9.94071C42.4132 10.2706 42.6446 10.5526 42.9415 10.751C43.2385 10.9494 43.5876 11.0553 43.9447 11.0553C44.4235 11.0553 44.8828 10.8651 45.2214 10.5265C45.56 10.1879 45.7502 9.72862 45.7502 9.24975Z" fill="black"/>
</svg>
