<svg width="55" height="43" viewBox="0 0 55 43" fill="none" xmlns="http://www.w3.org/2000/svg">
<path d="M42.6376 6.35898C41.9825 2.8069 38.8811 0.111328 35.139 0.111328C31.3931 0.111328 28.2908 2.81263 27.6395 6.36949C12.103 7.84188 -0.0476028 20.9388 0.000140212 36.8716C0.0106437 40.2059 2.77688 42.8891 6.11125 42.8891H35.139C35.9831 42.8891 36.6668 42.2054 36.6668 41.3613C36.6668 39.6741 35.2985 38.3058 33.6112 38.3058H26.0211L29.4395 33.6909C31.7445 30.2315 30.4277 25.2614 26.2206 23.5121C23.9395 22.5639 21.2983 23.0681 19.3227 24.551L16.1946 26.899C15.5205 27.406 14.5627 27.2723 14.0547 26.5944C13.5487 25.9184 13.6843 24.9606 14.3593 24.4546L17.6803 21.9633C21.1981 19.3222 26.1099 19.326 29.6285 21.9633C30.6665 22.7415 34.0085 25.693 33.5244 30.8636L44.8423 42.8891H53.4724C54.3165 42.8891 55.0001 42.2054 55.0001 41.3613C55.0001 39.6741 53.6318 38.3058 51.9446 38.3058H46.8237L37.4164 28.3103L52.1632 20.0364C53.0238 19.5538 53.7402 18.8506 54.2388 17.9992C54.7374 17.1479 55.0002 16.179 55.0001 15.1924C55.0001 13.149 53.881 11.2822 52.0897 10.3007C48.2168 8.17895 42.6376 6.35898 42.6376 6.35898ZM35.139 10.0419C33.8729 10.0419 32.8474 9.01541 32.8474 7.75022C32.8474 6.48407 33.8729 5.45855 35.139 5.45855C36.4042 5.45855 37.4307 6.48407 37.4307 7.75022C37.4307 9.01541 36.4042 10.0419 35.139 10.0419Z" fill="black"/>
</svg>
