<svg width="64" height="39" viewBox="0 0 64 39" fill="none" xmlns="http://www.w3.org/2000/svg">
<path d="M18.0273 5.82422V5.875L14.2188 2.67578C17.1133 1.12695 20.2871 0.263672 23.7402 0.263672C27.1934 0.263672 30.3926 1.12695 33.1602 2.625L29.3516 5.82422H18.0273ZM38.3145 21.9473C44.5859 21.9473 49.7402 27.1016 49.7402 33.373V34.5156C49.6895 36.9277 47.7344 38.832 45.3223 38.832C42.9102 38.832 40.9551 36.9277 40.9043 34.5156V33.373C40.9043 31.9258 39.7617 30.8086 38.3398 30.8086C35.877 30.8086 33.8711 28.8027 33.8711 26.3398C33.8711 23.877 35.8516 21.9473 38.3145 21.9473ZM8.6582 21.8457C11.1211 21.8457 13.1269 23.8516 13.1269 26.3145V34.541C13.0254 36.9023 11.1211 38.8066 8.70898 38.8066C6.29688 38.8066 4.39257 36.9023 4.29101 34.541V26.2383C4.24023 23.8008 6.24609 21.8457 8.6582 21.8457ZM0.837891 24.1562C0.837891 23.0645 1.19336 21.998 1.70117 21.1094C2.25976 21.5156 2.89453 21.7695 3.65625 21.7695C2.61523 23.0137 2.00586 24.5625 2.00586 26.2383V27.6348C1.19336 26.6699 0.837891 25.4512 0.837891 24.1562ZM31.5606 26.3652C31.5606 27.8125 32.0176 29.082 32.7539 30.1738C29.8086 30.834 26.7871 31.2148 23.6895 31.2148C20.7949 31.2148 18.0781 30.9102 15.3867 30.3516V26.2891C15.3867 24.6387 14.7773 23.0898 13.7871 21.9727H33.2109C32.2461 23.166 31.5606 24.6641 31.5606 26.3652ZM33.2617 21.998C33.2109 21.998 33.2617 21.9473 33.2617 21.9473V21.998ZM2.58984 18.4941C2.58984 17.8848 3.09765 17.3008 3.73242 17.3008H3.88477C4.74805 11.791 7.79492 6.99219 12.1875 3.9707L16.6563 7.72852C14.1934 10.623 12.4922 13.8477 11.502 17.3516H13.9141C15.0059 14.0508 16.8086 10.8516 19.3731 8.23633H27.7266C30.291 10.9023 32.043 14 33.1855 17.3516H35.5977C34.6074 13.9492 32.9824 10.75 30.5449 7.98242L35.2422 4.02148C39.5586 7.11914 42.707 11.8418 43.5449 17.3516H43.8496C44.459 17.3516 44.9922 17.8594 44.9922 18.4941C44.9922 19.1035 44.4844 19.6367 43.8496 19.6367H3.7832C3.09765 19.6367 2.58984 19.1035 2.58984 18.4941ZM44.2813 21.0078C45.5254 20.8555 46.541 19.8145 46.541 18.4941V16.2344C46.541 11.4863 50.3496 7.62695 55.1484 7.62695C59.8965 7.62695 63.7559 11.4355 63.7559 16.2344V18.4941C63.7559 19.7383 62.7148 20.7539 61.4961 20.7539H55.2754C54.7168 23.6484 53.1172 26.0098 50.8066 27.7109C49.4863 24.7656 47.1758 22.4551 44.2813 21.0078ZM58.8555 14.6348C59.6172 14.6348 60.3027 14.0254 60.3027 13.1875C60.3027 12.4258 59.6934 11.7402 58.8555 11.7402C58.0176 11.7402 57.4082 12.3496 57.4082 13.1875C57.4336 14 58.043 14.6348 58.8555 14.6348Z" fill="black"/>
<path d="M18.0273 5.875V5.82422H29.3516L33.1602 2.625L35.2422 4.02148L30.5449 7.98242C32.9824 10.75 34.6074 13.9492 35.5977 17.3516H33.1855C32.043 14 30.291 10.9023 27.7266 8.23633H19.3731C16.8086 10.8516 15.0059 14.0508 13.9141 17.3516H11.502C12.4922 13.8477 14.1934 10.623 16.6563 7.72852L12.1875 3.9707L14.2188 2.67578L18.0273 5.875Z" fill="black"/>
</svg>
