<svg width="55" height="52" viewBox="0 0 55 52" fill="none" xmlns="http://www.w3.org/2000/svg">
<path d="M31.2157 17.625C29.0479 17.625 19.7409 17.8377 13.75 26.8579V17.625C13.75 11.9381 9.12441 7.3125 3.4375 7.3125C1.53936 7.3125 1.65941e-07 8.85185 0 10.75C-1.65941e-07 12.6481 1.53936 14.1875 3.4375 14.1875C5.33242 14.1875 6.875 15.7301 6.875 17.625L6.875 45.125C6.875 48.917 9.958 52 13.75 52H32.6562C33.6059 52 34.375 51.2309 34.375 50.2813V48.5625C34.375 46.6644 32.8356 45.125 30.9375 45.125H27.5L41.25 34.8125V50.2813C41.25 51.2309 42.0191 52 42.9687 52H46.4062C47.3559 52 48.125 51.2309 48.125 50.2813L48.125 28.1373C47.0196 28.4241 45.881 28.625 44.6875 28.625C38.0478 28.625 32.493 23.8931 31.2157 17.625ZM48.125 7.3125L41.25 7.3125L34.375 0.4375V14.875C34.375 20.5705 38.992 25.1875 44.6875 25.1875C50.383 25.1875 55 20.5705 55 14.875V0.437502L48.125 7.3125ZM40.3906 15.9063C39.441 15.9063 38.6719 15.1371 38.6719 14.1875C38.6719 13.2379 39.441 12.4688 40.3906 12.4688C41.3402 12.4688 42.1094 13.2379 42.1094 14.1875C42.1094 15.1371 41.3402 15.9063 40.3906 15.9063ZM48.9844 15.9063C48.0348 15.9063 47.2656 15.1371 47.2656 14.1875C47.2656 13.2379 48.0348 12.4688 48.9844 12.4688C49.934 12.4688 50.7031 13.2379 50.7031 14.1875C50.7031 15.1371 49.934 15.9063 48.9844 15.9063Z" fill="black"/>
</svg>
