<svg width="163" height="198" viewBox="0 0 163 198" fill="none" xmlns="http://www.w3.org/2000/svg">
<path d="M119.178 53.5176C111.833 50.7107 88.5639 41.2806 69.5841 47.2883C72.0737 37.6859 72.616 22.839 69.5841 11.9809C66.5523 1.12271 60.957 0.556411 59.3055 1.3443C57.654 2.1322 52.3545 4.96369 48.5585 14.1476C44.7626 23.3314 38.8715 50.76 38.0827 56.3491C29.9978 62.406 15.9725 73.3873 8.82434 87.9879C1.70078 102.589 -6.26085 140.383 20.6805 168.747C47.6219 197.111 81.0706 196.963 97.9305 192.138C114.79 187.312 137.665 181.132 150.581 157.249C163.497 133.366 164.951 107.661 153.046 86.7322C146.637 75.4801 142.225 70.9744 142.225 70.9744C142.225 70.9744 142.052 63.4648 143.383 61.1257C144.714 58.7866 142.767 29.7577 138.749 23.7746C134.731 17.7916 133.721 17.176 132.242 20.6969C130.763 24.2178 124.182 47.5099 122.555 49.7259C120.953 51.9172 119.153 53.5422 119.153 53.5422L119.178 53.5176Z" fill="white"/>
<path d="M78.655 195.585C35.215 195.585 -1.52588e-05 163.253 -1.52588e-05 123.369C-1.52588e-05 83.4858 35.215 51.1539 78.655 51.1539C122.095 51.1539 157.31 83.4858 157.31 123.369C157.31 163.253 122.095 195.585 78.655 195.585Z" fill="#FBD4BA"/>
<path d="M71.6793 43.5951C72.3202 24.4148 69.2144 15.0339 68.3517 11.7839C67.3164 7.99215 62.288 6.49023 58.2949 12.7195C52.4531 21.8541 49.0762 37.3904 49.0022 50.3414C49.0022 50.3414 69.0665 42.8811 71.6793 43.5951Z" fill="#FBD4BA"/>
<path d="M129.728 60.3378C131.157 48.8149 133.031 30.3732 135.57 27.7387L138.084 25.1042C138.084 25.1042 147.82 44.9985 140.869 69.4971C138.01 66.444 139.489 67.6258 139.489 67.6258L139.316 67.4042L129.678 60.3378" fill="#FBD4BA"/>
<path d="M1.52824 119.873C1.15851 78.0162 41.7061 47.7561 81.2431 47.6084C122.629 46.1557 160.736 76.9328 159.602 119.873C158.715 160.843 121.125 191.99 81.2431 191.424C41.7308 192.211 1.18315 161.508 1.52824 119.873ZM0.912018 119.873C0.492981 151.093 21.1982 180.935 50.4319 192.088C101.431 212.721 164.31 177.118 162.979 119.873C162.486 88.505 140.302 60.3624 111.635 48.8395C59.5766 27.2709 1.2571 62.8492 0.912018 119.873Z" fill="#D65F36"/>
<path d="M71.5561 45.0478C72.8378 27.4679 74.1196 7.05653 62.6085 0.654897C51.0974 -5.72211 37.4665 36.0608 36.7024 57.0139L40.2272 55.6104C40.2272 55.6104 43.678 11.8824 57.8266 3.31404C68.2284 -2.98911 73.4294 25.4489 69.7567 45.0478H71.5561Z" fill="#D65F36"/>
<path d="M121.569 75.8494C121.224 84.5409 119.917 90.4993 119.35 92.8876C118.66 95.793 119.72 97.812 121.569 97.812C123.418 97.812 128.199 80.9708 127.706 77.0559C127.189 73.1411 121.741 71.2206 121.569 75.8741V75.8494Z" fill="#1B1B1B"/>
<path d="M70.0278 68.6845C69.6827 77.376 68.3763 83.3344 67.8094 85.7227C67.1192 88.6281 68.1791 90.6471 70.0278 90.6471C71.8765 90.6471 76.6584 73.8059 76.1654 69.891C75.6478 65.9762 70.2004 64.0557 70.0278 68.7092V68.6845Z" fill="#1B1B1B"/>
<path d="M140.721 69.8172C146.292 50.0952 138.453 21.8295 135.693 20.7216C131.305 18.9734 129.087 30.9395 126.277 42.4132C124.872 48.1747 122.925 52.385 121.372 55.1426C120.065 54.4286 118.734 53.7392 117.379 53.099C117.6 52.7543 117.945 52.5574 118.365 52.3358C123.245 49.8736 129.013 21.1155 131.305 18.9734C143.852 7.22888 144.862 63.6125 144.862 63.6125C144.616 66.9118 143.802 69.3493 142.718 71.5161C141.732 70.3835 141.756 70.9005 140.721 69.8172Z" fill="#D65F36"/>
<path d="M128.15 114.038C126.967 114.087 143.408 106.38 148.387 105.74C153.366 105.1 138.897 113.668 128.15 114.038Z" fill="#D65F36"/>
<path d="M125.735 126.447C125.242 128.097 138.774 131.445 140.277 129.402C141.781 127.358 126.4 124.206 125.735 126.447Z" fill="#D65F36"/>
<path d="M123.097 139.915C123.861 136.763 138.084 151.463 137.566 153.235C137.048 155.008 122.53 142.279 123.097 139.915Z" fill="#D65F36"/>
<path d="M65.591 100.348C66.1826 102.047 45.2309 83.1621 46.2415 82.6943C47.2521 82.2265 63.3233 93.8725 65.591 100.348Z" fill="#D65F36"/>
<path d="M59.7245 114.259C61.376 114.013 39.2905 108.424 36.5298 109.852C33.7445 111.255 55.83 114.875 59.7245 114.259Z" fill="#D65F36"/>
<path d="M57.6294 138.438C59.2562 139.053 42.3963 143.214 37.0475 142.87C38.9947 140.506 57.6294 138.438 57.6294 138.438Z" fill="#D65F36"/>
<path d="M101.036 107.39C99.9024 118.396 102.984 125.241 108.628 126.521C116.664 128.343 119.178 120.956 121.421 119.873C122.629 119.282 121.717 121.72 120.632 123.394C116.343 130.066 101.899 131.051 100.272 118.593C100.198 117.952 99.582 115.146 99.508 112.437C99.508 112.043 99.508 111.797 99.3355 112.462C98.4235 115.786 93.2965 123.615 85.187 125.388C80.5776 126.373 74.2428 125.634 68.3024 117.288C67.1685 115.712 64.3339 109.655 65.6157 109.655C66.577 109.655 67.1932 112.191 69.2884 115.663C75.5739 126.078 93.1732 128.441 98.9411 107.39C100.026 103.475 101.036 107.439 101.036 107.439V107.39Z" fill="#D65F36"/>
<path d="M105.646 104.854C108.209 102.318 111.192 100.028 110.477 98.0336C109.096 94.2665 93.0007 92.7153 92.0147 94.8328C91.3739 96.187 95.3916 103.155 97.3389 107.119C98.0291 108.522 100.371 109.015 101.505 108.399C101.702 108.301 103.92 106.627 105.646 104.854Z" fill="#1B1B1B"/>
<path d="M108.061 98.7968C107.987 99.4124 106.385 100.865 105.596 101.284C104.882 101.653 102.934 98.329 103.772 97.7627C104.61 97.1964 108.135 98.1567 108.061 98.7722V98.7968Z" fill="white"/>
</svg>
