<svg width="157" height="198" viewBox="0 0 157 198" fill="none" xmlns="http://www.w3.org/2000/svg">
<path d="M5.66127 147.453C3.37531 134.58 -0.0203421 112.174 0.645472 93.967C1.31129 75.7596 4.60707 47.0954 11.4095 33.5985C18.2119 20.1016 24.4372 8.15262 31.2396 3.74275C38.042 -0.667131 36.0557 3.74275 36.0557 3.74275L41.9149 11.8498L56.7403 37.6298L59.2149 43.131C59.2149 43.131 76.8257 37.9416 81.4531 37.6632C86.0805 37.3848 97.2218 35.4805 103.547 35.6698C104.746 25.8924 110.505 8.18603 117.374 6.2929C124.243 4.39977 131.977 35.8591 131.977 35.8591C131.977 35.8591 136.982 49.9796 138.214 51.973C139.446 53.9663 146.426 69.1225 147.091 70.5479C147.757 71.9733 150.764 80.6038 150.764 80.6038L153.96 84.9246C153.96 84.9246 157.5 104.546 151.408 114.068L149.988 114.78C149.988 114.78 152.274 124.959 146.37 132.698C145.56 133.133 145.138 133.79 144.983 134.547C144.339 137.554 147.768 142.264 147.768 142.264C148.734 145.961 150.997 151.385 151.475 155.149C151.952 158.913 149.022 163.2 141.465 170.505C133.908 177.81 118.617 186.43 104.069 190.127C89.5206 193.824 74.1292 198.468 52.124 196.385C30.1189 194.303 13.9729 187.666 6.50464 181.886C5.27288 181.096 3.85248 175.795 3.85248 175.795C3.85248 175.795 1.43335 162.086 1.56652 159.046C1.69968 156.006 1.66639 146.975 5.65018 147.465L5.66127 147.453Z" fill="white"/>
<path d="M55.8637 45.0686C48.573 33.0528 34.4466 2.31733 33.6366 2.03893C32.8265 1.76053 -18.0084 38.9884 8.09149 152.442C10.211 159.191 10.5883 159.235 21.4078 166.752C32.2162 174.269 46.5312 175.828 53.9772 176.441C61.4232 177.053 83.3063 173.456 112.902 160.705C142.497 147.955 136.96 118.734 136.96 118.734C136.96 118.734 146.215 116.016 146.425 110.727C146.625 105.437 147.435 85.1918 141.965 81.8844L126.185 82.7753C126.185 82.7753 116.075 59.3228 103.37 52.6412C88.655 44.9127 61.967 50.0019 58.5158 51.4162C57.7058 45.7368 55.8859 45.0464 55.8859 45.0464L55.8637 45.0686Z" fill="#CECCE7"/>
<path d="M76.1155 195.639C74.5065 197.176 67.8372 178.1 73.6076 172.599L3.37531 148.801C3.37531 148.801 1.32238 155.338 1.6109 158.467C1.89942 161.596 2.88705 175.383 5.71676 182.209C16.392 189.036 37.7313 196.708 52.6123 196.998C67.4821 197.287 76.1266 195.65 76.1266 195.65L76.1155 195.639Z" fill="#CECCE7"/>
<path d="M90.1087 89.7687C90.1087 89.7687 107.32 82.6751 131.733 80.5481C138.158 79.9913 151.131 78.1538 153.417 80.1249C154.948 81.439 158.011 91.8846 156.668 102.33C156.124 106.54 153.328 116.128 150.687 116.785C134.452 118.411 105.833 122.642 93.4267 120.17C90.708 119.625 80.4544 114.714 80.7873 112.887C80.9538 111.974 82.6405 110.382 83.8279 111.874C84.3938 112.587 90.3861 117.297 95.5129 118.043C109.029 120.014 148.19 117.197 151.652 111.44C154.349 106.974 155.148 86.272 150.764 81.929C146.381 77.5859 113.889 83.5326 95.868 89.1785C89.2321 91.3501 90.1198 89.7576 90.1198 89.7576L90.1087 89.7687Z" fill="#6460A7"/>
<path d="M4.68474 149.135C-1.29649 117.208 -3.41599 67.9755 9.81152 35.8591C18.6447 14.3777 27.0006 5.10134 31.3284 1.12577C35.1568 -2.39322 37.92 3.2639 39.2294 5.4577C45.4992 15.8922 56.474 35.9371 59.4369 42.4851C59.4369 42.4851 86.8018 34.0885 102.371 34.8235C102.371 34.8235 107.964 10.1348 114.899 5.07907C121.835 0.0233044 129.569 21.7052 132.133 31.8279C134.696 41.9617 151.708 78.2207 152.24 81.1829L148.834 80.8154C148.29 72.6081 137.093 56.0711 134.363 46.0932C131.467 35.4916 124.787 13.3643 119.027 8.11922C115.232 4.6559 108.108 16.3265 104.313 36.5384C104.313 36.5384 76.9922 37.652 59.0263 43.8882C59.0263 43.8882 39.0408 4.31068 33.7919 4.08796C24.0821 3.68707 -15.789 62.3073 9.1457 156.24L4.68474 149.135Z" fill="#6460A7"/>
<path d="M105.667 85.5482C113.645 92.6864 124.875 97.7978 129.358 99.3123C134.274 100.972 132.799 116.952 132.288 118.065H134.363C134.363 118.065 134.441 103.177 135.207 100.07C135.983 96.9626 150.187 87.4636 148.822 80.8376C148.822 80.8376 146.459 80.0024 144.717 81.2497C146.548 83.6328 139.523 95.9938 132.854 96.6731C128.693 97.0963 113.224 91.4169 110.083 84.3789C107.276 84.1896 105.655 85.5593 105.655 85.5593L105.667 85.5482Z" fill="#6460A7"/>
<path d="M148.601 116.985C149.289 133.188 133.087 147.097 111.77 157.788C80.0771 173.679 36.0113 185.929 7.56994 152.442L3.37531 141.473C3.37531 141.473 4.19648 146.462 4.4961 148.266C4.79571 150.07 5.12862 152.064 5.12862 152.064C5.12862 152.064 33.5478 194.748 103.48 165.628C155.159 144.113 150.676 116.807 150.676 116.807L150.631 116.284L148.445 116.596L148.601 116.985Z" fill="#6460A7"/>
<path d="M143.673 135.17C145.471 146.229 152.029 152.754 149.499 158.656C145.638 167.699 128.981 179.147 118.594 183.223C108.197 187.298 52.8231 210.339 6.9929 181.452C4.57378 179.926 -1.36307 151.496 5.32837 149.814L4.69584 144.937C4.69584 144.937 -0.164602 150.104 0.845216 160.26C1.85503 170.416 4.4961 182.32 4.4961 182.32C4.4961 182.32 37.4428 208.089 94.6917 193.557C126.163 185.561 152.052 167.799 153.006 154.814C153.294 150.817 145.793 137.81 145.627 132.698L143.662 135.182L143.673 135.17Z" fill="#6460A7"/>
<path d="M105.167 186.697C100.418 186.285 84.3161 181.663 90.0865 174.737C94.037 170.505 99.2859 167.944 104.757 166.374C109.107 165.316 118.106 163.69 119.626 169.959C120.126 175.127 116.275 179.514 113.401 183.223C112.436 184.436 111.271 185.695 109.75 186.162C108.252 186.697 106.676 186.708 105.167 186.697ZM105.156 186.419C106.676 186.396 108.208 186.352 109.617 185.806C111.093 185.305 112.014 184.069 112.891 182.844C114.633 180.361 116.175 177.688 117.174 174.826C121.602 162.676 101.971 169.67 96.9555 172.231C95.6017 172.911 94.2811 173.657 93.0383 174.536C91.8731 175.416 90.4194 176.34 90.3418 177.81C90.6081 182.298 101.261 186.118 105.156 186.419Z" fill="#6AA2AF"/>
<path d="M105.167 186.697C100.418 186.285 84.3161 181.663 90.0865 174.737C94.037 170.505 99.2859 167.944 104.757 166.374C109.107 165.316 118.106 163.69 119.626 169.959C120.126 175.127 116.275 179.514 113.401 183.223C112.436 184.436 111.271 185.695 109.75 186.162C108.252 186.697 106.676 186.708 105.167 186.697ZM105.156 186.419C106.676 186.396 108.208 186.352 109.617 185.806C111.093 185.305 112.014 184.069 112.891 182.844C114.633 180.361 116.175 177.688 117.174 174.826C121.602 162.676 101.971 169.67 96.9555 172.231C95.6017 172.911 94.2811 173.657 93.0383 174.536C91.8731 175.416 90.4194 176.34 90.3418 177.81C90.6081 182.298 101.261 186.118 105.156 186.419Z" fill="#6460A7"/>
<path d="M69.2132 62.04C69.2132 60.3696 72.9751 60.8818 73.419 62.2404C73.8629 63.599 79.7442 80.5704 77.4915 81.2719C75.2389 81.9735 69.1467 81.4835 69.2243 62.04H69.2132Z" fill="black"/>
<path d="M117.385 56.4608C117.385 54.7904 121.147 55.3027 121.591 56.6613C122.035 58.0199 127.916 74.9912 125.663 75.6928C123.411 76.3944 117.318 75.9044 117.396 56.4608H117.385Z" fill="black"/>
<path d="M47.43 56.9619C54.7651 46.082 64.7523 37.652 65.6955 36.6275C66.6388 35.603 67.7706 34.946 65.3959 35.1464C63.0212 35.3469 60.7241 36.4382 60.2026 36.6386C59.681 36.8391 62.8214 32.8301 64.0199 31.7833C64.6413 31.2377 65.7066 28.8323 64.031 29.2109C61.9226 29.6897 45.6212 38.1977 38.952 55.4808C38.0642 57.7749 42.1257 54.6122 43.0467 53.7882C44.4339 52.5409 44.0122 56.4274 44.6114 57.2515C45.2106 58.0755 46.3425 58.5878 47.43 56.9731V56.9619Z" fill="#6460A7"/>
<path d="M116.286 30.1241C115.343 29.712 113.601 28.8211 113.468 28.1084C113.379 27.6518 116.519 27.5405 116.741 26.8501C116.908 26.3155 114.134 25.1462 114.322 24.9792C114.699 24.6228 117.418 24.2776 119.782 25.1128C122.268 25.9926 135.04 33.3869 135.184 34.9126C135.251 35.6141 132.732 36.0707 132.166 36.4382C131.711 36.7389 132.954 40.2356 130.024 38.5206C129.081 37.9638 119.682 31.6163 116.286 30.1352V30.1241Z" fill="#6460A7"/>
<path d="M107.631 87.1295C109.85 88.8667 113.723 91.7176 118.095 94.1229C122.234 96.4058 126.307 98.5217 130.091 99.2901C131.045 99.4794 135.051 99.4571 136.505 98.0874C140.544 94.29 147.036 87.4079 147.901 85.5593C149 83.1985 150.032 80.3365 148.922 79.3566C147.813 78.3766 116.597 81.1272 107.72 84.4234C106.743 84.7798 106.388 86.1495 107.62 87.1184L107.631 87.1295Z" fill="black"/>
<path d="M142.408 81.027C143.551 82.4301 144.95 84.9468 145.249 86.7509C145.427 87.7643 149.311 81.5726 147.58 80.7597C147.003 80.4924 142.031 80.5815 142.408 81.0381V81.027Z" fill="white"/>
</svg>
