<svg width="42" height="42" viewBox="0 0 42 42" fill="none" xmlns="http://www.w3.org/2000/svg">
<path d="M13.1757 11.3048C14.7176 10.7081 19.6062 8.71695 23.5899 9.99024C23.0663 7.96024 22.9529 4.82429 23.5899 2.53235C24.2269 0.240418 25.3972 0.116726 25.7471 0.281648C26.097 0.446571 27.2045 1.04563 28.0056 2.98589C28.8067 4.92616 30.0421 10.7227 30.2038 11.9038C31.9025 13.1844 34.8487 15.503 36.3447 18.5905C37.8431 21.6779 39.5129 29.6597 33.8569 35.6527C28.201 41.6456 21.177 41.6165 17.6348 40.5931C14.0926 39.5696 9.2909 38.2672 6.57876 33.2225C3.86663 28.1778 3.5626 22.7475 6.06481 18.3261C7.40881 15.9493 8.33538 14.9961 8.33538 14.9961C8.33538 14.9961 8.36916 13.41 8.09167 12.9152C7.81418 12.4204 8.21956 6.28919 9.06167 5.02074C9.90378 3.7523 10.1185 3.6286 10.4274 4.37076C10.7362 5.11291 12.1213 10.0363 12.4615 10.502C12.8017 10.9677 13.1781 11.3072 13.1781 11.3072L13.1757 11.3048Z" fill="white"/>
<path d="M21.6813 10.8076C12.558 10.8076 5.16479 17.6373 5.16479 26.0653C5.16479 34.4934 12.5604 41.3231 21.6813 41.3231C30.8022 41.3231 38.1978 34.4934 38.1978 26.0653C38.1978 17.6373 30.8022 10.8076 21.6813 10.8076ZM19.6786 33.6687C18.3442 33.9161 16.8144 31.68 16.2619 28.675C15.7093 25.67 16.3439 23.0312 17.6782 22.7839C19.0126 22.5365 20.5424 24.7726 21.095 27.7776C21.6475 30.7826 21.0129 33.4214 19.6786 33.6687Z" fill="#FBD4BA"/>
<path d="M23.1484 9.20444C23.0156 5.15171 23.6623 3.16779 23.8481 2.48142C24.0653 1.67864 25.1221 1.36577 25.957 2.6803C27.1852 4.60844 27.8922 7.89476 27.9091 10.633C27.9091 10.633 23.6985 9.05649 23.1459 9.20686" fill="#FBD4BA"/>
<path d="M10.9582 12.743C10.659 10.3055 10.2633 6.41046 9.73246 5.85506L9.20162 5.29723C9.20162 5.29723 7.15787 9.50275 8.61528 14.6784C9.2161 14.0308 8.90242 14.2855 8.90242 14.2855L8.9362 14.2394L10.9558 12.743" fill="#FBD4BA"/>
<path d="M37.8769 25.3232C37.8769 14.0357 24.8736 7.46305 15.0095 10.9895C8.95068 12.9588 4.43608 18.8427 4.68461 25.3232C4.93315 34.0616 12.6762 40.5009 21.136 40.4403C29.4485 40.5931 37.9324 34.1368 37.8769 25.3232ZM38.0048 25.3232C38.0965 31.9152 33.7363 38.2356 27.6075 40.5785C16.8989 44.9368 3.69772 37.4159 3.98004 25.3208C4.28165 13.7301 17.0316 5.91084 27.5906 10.1164C33.746 12.4083 38.0747 18.7408 38.0072 25.3208L38.0048 25.3232Z" fill="#D65F36"/>
<path d="M23.1701 9.51488C22.9022 5.80413 22.6344 1.48704 25.0497 0.138554C27.4651 -1.20993 30.3292 7.6207 30.4885 12.0445L29.7477 11.7462C29.7477 11.7462 29.0238 2.5081 26.0511 0.693954C23.8674 -0.637552 22.7768 5.36999 23.5465 9.51488H23.1701Z" fill="#D65F36"/>
<path d="M12.6666 16.0172C12.739 17.8507 13.0141 19.1143 13.1323 19.614C13.2746 20.2251 13.0551 20.6568 12.6642 20.6568C12.2733 20.6568 11.2719 17.0965 11.3781 16.267C11.4843 15.44 12.628 15.0374 12.6666 16.0148V16.0172Z" fill="#1B1B1B"/>
<path d="M23.4934 14.5086C23.5658 16.3422 23.8409 17.6058 23.9591 18.1054C24.1015 18.7166 23.8819 19.1483 23.491 19.1483C23.1001 19.1483 22.0987 15.5879 22.2049 14.7584C22.3111 13.9314 23.4548 13.5288 23.4934 14.5062V14.5086Z" fill="#1B1B1B"/>
<path d="M21.1167 27.7728C21.4328 29.3905 21.7609 33.1473 19.7823 33.7706C19.196 33.8797 18.641 33.5766 18.226 33.1909C16.66 31.6193 16.064 29.3225 15.8492 27.1664C15.7793 25.9901 15.8227 24.7605 16.3608 23.6764C16.9302 22.5535 18.0619 22.3109 19.0054 23.1622C20.2697 24.3628 20.762 26.1284 21.1167 27.7728ZM21.0732 27.7825C20.8464 26.7323 20.47 25.704 19.9078 24.7896C19.1767 23.5236 17.5383 22.0611 16.6745 24.0572C15.7503 26.4122 16.3198 29.5408 17.4611 31.7406C17.9316 32.5628 18.6748 33.6784 19.7389 33.5596C20.2432 33.4529 20.6003 32.9969 20.8054 32.5434C21.4617 31.0615 21.37 29.3468 21.0757 27.7825H21.0732Z" fill="#D65F36"/>
<path d="M16.0109 22.1508C15.4029 21.5251 14.691 20.6859 15.0843 20.5501C15.7117 20.3343 18.5734 19.7231 18.8775 20.0287C19.1815 20.3343 17.7337 22.4613 17.5914 22.7329C17.326 22.7766 16.9978 22.9827 16.9978 22.9827C16.9568 22.9609 16.3777 22.5292 16.0133 22.1533L16.0109 22.1508Z" fill="#1B1B1B"/>
<path d="M8.64906 14.7463C7.47879 10.5796 9.12441 4.60601 9.70592 4.37318C10.6277 4.0021 11.0934 6.5293 11.6845 8.95705C11.9813 10.177 12.3867 11.0647 12.7173 11.6443C12.9923 11.4939 13.2722 11.3509 13.557 11.215C13.5111 11.1447 13.4411 11.0986 13.3494 11.0525C12.3288 10.5335 11.1102 4.45564 10.6301 4.0021C7.99515 1.52099 7.78282 13.4294 7.78282 13.4294C7.8359 14.1254 8.00722 14.6396 8.23403 15.1028C8.43913 14.8627 8.43431 14.9743 8.65147 14.7463H8.64906Z" fill="#D65F36"/>
<path d="M11.2864 24.0887C11.5349 24.0984 8.08443 22.4686 7.03481 22.3327C5.98518 22.1969 9.02789 24.0111 11.2864 24.0887Z" fill="#D65F36"/>
<path d="M11.7979 26.7105C11.9041 27.0597 9.05926 27.7679 8.74316 27.3386C8.42707 26.9093 11.6556 26.24 11.7979 26.7105Z" fill="#D65F36"/>
<path d="M12.3529 29.5578C12.1937 28.8908 9.20645 31.9977 9.31503 32.3712C9.42361 32.7447 12.4736 30.0574 12.3529 29.5578Z" fill="#D65F36"/>
<path d="M24.4224 21.1953C24.2993 21.5542 28.6957 17.5645 28.4858 17.4651C28.2758 17.3657 24.8953 19.8274 24.4224 21.1953Z" fill="#D65F36"/>
<path d="M25.653 24.1372C25.3079 24.0838 29.9432 22.9076 30.5271 23.2034C31.1086 23.4993 26.4734 24.2633 25.653 24.1372Z" fill="#D65F36"/>
<path d="M26.097 29.2474C25.7543 29.3808 29.2965 30.2587 30.4185 30.1835C30.0083 29.6863 26.097 29.2474 26.097 29.2474Z" fill="#D65F36"/>
<path d="M15.5042 20.8727C15.5187 21.0012 15.8565 21.3093 16.0206 21.4014C16.1677 21.4815 16.5828 20.7781 16.4042 20.6593C16.2257 20.5404 15.4897 20.7417 15.5042 20.8727Z" fill="white"/>
</svg>
